<?xml version="1.0" encoding="UTF-8"?><svg id="Layer_2" xmlns="http://www.w3.org/2000/svg" viewBox="0 0 288.26 102.1"><defs><style>.cls-1{stroke-miterlimit:10;stroke-width:1.2px;}.cls-1,.cls-2{stroke:#000;}.cls-2{fill:#44b2e2;stroke-linecap:round;stroke-linejoin:round;stroke-width:5px;}</style></defs><g id="Layer_7"><path class="cls-2" d="M59.74,3.99c37.03-2,82.81-1.49,91.94-1,22.88,1.23,69-1.57,91.17,0,28.23,2,41.19,21.34,42.89,51.41.45,7.88-6.83,43.64-52.09,44.61-27.34.59-90.36-.72-99.84.13s-88.94.34-91.95,0c-18.3-2.07-31.11-6.92-36.24-27.28C.94,53.28.13,38.9,13.13,21.42,26.11,3.97,46.31,4.72,59.74,3.99Z"/><path class="cls-1" d="M39.46,39.73l.13-.21c.11-.22.34-.42.69-.59.35-.17.76-.31,1.24-.42.48-.11.98-.2,1.51-.25.53-.06,1.05-.08,1.55-.08.9,0,1.66.17,2.29.53.63.35,1.14.78,1.53,1.3.39.52.68,1.08.86,1.68.18.6.27,1.16.27,1.66-.03.64-.11,1.27-.25,1.89-.14.62-.36,1.2-.67,1.76l-.46.84c1.23,0,2.24.12,3.02.36.78.24,1.4.59,1.85,1.05.45.46.76,1.04.92,1.72.17.69.25,1.48.25,2.37,0,1.09-.1,2.06-.29,2.9-.2.84-.47,1.58-.82,2.23-.35.64-.78,1.22-1.3,1.72-.52.5-1.1.98-1.74,1.43-.78.62-1.67,1.03-2.65,1.24-.98.21-1.93.38-2.86.53-.59-.06-.99-.2-1.22-.42l-.08-.17c-.31.22-.63.35-.97.38-.42,0-.82-.1-1.2-.32-.38-.21-.59-.64-.65-1.28l-.13-3.19-.13-1.34c-.25-1.62-.49-3.12-.71-4.49-.22-1.37-.43-2.68-.61-3.93-.18-1.25-.35-2.46-.5-3.65-.15-1.19-.29-2.44-.4-3.76.11-.5.32-.86.61-1.07.29-.21.59-.34.9-.4ZM42.32,48.85v.04c.06,0,.27-.09.63-.27.36-.18.66-.3.88-.36l.13-.13c.56-.64,1.05-1.41,1.47-2.29.42-.88.63-1.71.63-2.5,0-.53-.12-.99-.36-1.39-.24-.39-.71-.59-1.41-.59-.45,0-.94.07-1.47.21-.53.14-.99.24-1.39.29.03.56.08,1.15.15,1.79.07.63.15,1.25.23,1.87.08.62.17,1.21.25,1.78.08.57.17,1.09.25,1.53ZM45.68,51.03c-.2.39-.57.73-1.11,1.03-.55.29-1.04.44-1.49.44h-.17l.55,3.82c.2,1.48.32,2.79.38,3.91v.04h.04c.06,0,.13-.01.21-.04,4.45-.67,6.68-2.74,6.68-6.21,0-.42-.04-.87-.11-1.34-.07-.48-.17-.97-.31-1.47l-.04-.04c-.22-.08-.56-.17-1.01-.27-.45-.1-.95-.15-1.51-.15-.64,0-1.34.1-2.1.29Z"/><path class="cls-1" d="M69.02,62.07l-.97.92c-.36.34-.95.58-1.74.74-.8.15-1.63.23-2.5.23-1.18,0-2.18-.13-3-.38-.83-.25-1.55-.74-2.16-1.47-1.01-1.34-1.51-2.6-1.51-3.78,0-.78.16-1.56.48-2.33.32-.77.78-1.46,1.37-2.08.59-.62,1.31-1.12,2.16-1.51.85-.39,1.81-.59,2.88-.59.45.06.88.15,1.3.29.42.14.81.29,1.18.46.36.17.69.33.99.48.29.15.52.27.69.36l-.25-1.13c-.14-.45-.31-.89-.5-1.32-.2-.43-.43-.86-.71-1.28l-.84-.76c-.22-.06-.43-.13-.63-.23-.2-.1-.45-.15-.76-.15-.81.06-1.61.16-2.39.32-.78.15-1.57.37-2.35.65-.08.03-.21.04-.38.04-.59,0-1.04-.17-1.36-.5-.32-.34-.48-.7-.48-1.09,0-.34.08-.64.25-.9.17-.27.49-.54.97-.82.73-.22,1.53-.47,2.41-.73.88-.27,1.77-.4,2.67-.4,1.54,0,2.82.31,3.84.92,1.02.62,1.83,1.42,2.44,2.42.6.99,1.02,2.09,1.26,3.3.24,1.2.36,2.39.36,3.57,0,.7-.02,1.45-.06,2.25-.04.8-.14,1.54-.29,2.23-.15.69-.37,1.25-.65,1.7-.28.45-.66.67-1.13.67-.11,0-.22,0-.34-.02-.11-.01-.18-.04-.21-.06ZM68.39,56.99l-.29-.04c-.42-.08-.8-.22-1.16-.42-.35-.2-.69-.39-1.03-.59-.34-.2-.66-.37-.97-.52-.31-.15-.62-.23-.92-.23-.98.11-1.83.45-2.54,1.01-.71.56-1.07,1.23-1.07,2.02,0,.22.06.46.17.71.11.25.29.57.55.97.73.45,1.53.67,2.39.67,1.01,0,1.89-.1,2.65-.29l.55-.55c.28-.36.66-.55,1.13-.55h.21c.03-.22.06-.45.08-.67.03-.22.07-.45.13-.67l.13-.84Z"/><path class="cls-1" d="M89.89,46.45c.03.14.05.26.06.36.01.1.02.2.02.32,0,.45-.16.85-.48,1.22-.32.36-.72.55-1.2.55-.25,0-.44-.04-.57-.13-.13-.08-.25-.2-.38-.34-.12-.14-.28-.31-.46-.5-.18-.2-.46-.41-.82-.63l-.76-.25c-.36-.11-.77-.17-1.22-.17-.9,0-1.68.22-2.35.65-.67.43-1.24.99-1.7,1.66-.46.67-.81,1.41-1.05,2.23-.24.81-.36,1.6-.36,2.35,0,.84.13,1.62.4,2.33.27.71.66,1.33,1.18,1.85.52.52,1.15.93,1.89,1.24.74.31,1.57.46,2.5.46.56,0,1.12-.07,1.68-.21.56-.14,1.06-.39,1.51-.76l.13-.17c.34-.5.8-.76,1.39-.76.22,0,.49.04.8.13l.17.08c.59.48.88.97.88,1.47,0,.62-.24,1.15-.71,1.6-.48.45-1.05.82-1.72,1.11-.67.29-1.38.51-2.12.65-.74.14-1.36.21-1.87.21-1.34,0-2.59-.22-3.74-.65-1.15-.43-2.15-1.05-3-1.85-.85-.8-1.53-1.77-2.02-2.92-.49-1.15-.74-2.45-.74-3.91,0-1.32.22-2.59.67-3.82.45-1.23,1.08-2.33,1.89-3.3.81-.96,1.79-1.74,2.92-2.33,1.13-.59,2.4-.88,3.8-.88,1.01,0,1.98.23,2.92.69.94.46,1.76,1.27,2.46,2.42Z"/><path class="cls-1" d="M106.9,48.97c.56,0,1.04.13,1.43.4.39.27.59.67.59,1.2,0,.31-.08.62-.23.92-.15.31-.43.59-.82.84-.78.22-1.6.48-2.44.78-.84.29-1.66.62-2.46.99-.8.36-1.55.76-2.27,1.2-.71.43-1.32.88-1.83,1.32.14,0,.46.1.97.32.5.21.98.41,1.43.61,1.18.53,2.33,1.05,3.46,1.55,1.13.5,2.37.8,3.72.88,1.01.34,1.51.92,1.51,1.76-.14.84-.66,1.4-1.55,1.68-.84-.08-1.62-.2-2.33-.36-.71-.15-1.44-.35-2.18-.59-.74-.24-1.53-.53-2.37-.88-.84-.35-1.81-.78-2.9-1.28l-.5-.21v2.52c0,.42-.17.78-.5,1.07-.34.29-.7.44-1.09.44-.42,0-.83-.13-1.22-.38-.39-.25-.59-.69-.59-1.3,0-4-.06-7.95-.17-11.84-.11-3.89-.17-7.87-.17-11.93.11-.48.32-.84.61-1.09.29-.25.65-.41,1.07-.46.84,0,1.41.5,1.72,1.51,0,2.02.01,4,.04,5.96.03,1.96.07,3.92.13,5.88l.08,2.73c1.18-.87,2.5-1.68,3.99-2.44,1.48-.76,3.11-1.36,4.87-1.81Z"/><path class="cls-1" d="M137.39,59.13c.36-.42.68-.69.95-.82.27-.12.55-.19.86-.19.48,0,.83.2,1.07.59.24.39.36.84.36,1.34-.14.53-.37.98-.69,1.34-.32.36-.71.66-1.16.88-.45.22-.94.38-1.47.48-.53.1-1.06.15-1.6.15-.56-.03-1.11-.11-1.66-.25-.55-.14-1.06-.33-1.53-.57-.48-.24-.89-.52-1.24-.84-.35-.32-.6-.69-.74-1.11-.64-1.6-1.08-3.24-1.3-4.93-.22-1.69-.34-3.34-.34-4.93v-1.05l-2.6.38c-.56-.06-.99-.25-1.28-.59-.29-.34-.44-.74-.44-1.22,0-.31.11-.62.34-.94.22-.32.56-.55,1.01-.69l3.07-.38c0-.98.04-1.95.11-2.92.07-.96.12-1.94.15-2.92.31-.98.87-1.53,1.68-1.64.81,0,1.4.52,1.76,1.55-.06,1.12-.14,2.52-.25,4.2l-.08,1.18c.73-.11,1.48-.2,2.27-.25.78-.06,1.61-.08,2.48-.08,1.01.36,1.51.92,1.51,1.68-.06.39-.21.75-.46,1.07-.25.32-.63.54-1.13.65-1.65,0-3.23.13-4.75.38v1.09c0,.9.03,1.79.08,2.67.06.88.13,1.72.23,2.52.1.8.23,1.53.4,2.18.17.66.36,1.2.59,1.62.36.17.78.33,1.26.48.48.15.94.23,1.39.23.25,0,.59-.07,1.01-.21l.17-.13Z"/><path class="cls-1" d="M146.37,47.33c-.39-.45-.59-.88-.59-1.3,0-.48.15-.88.44-1.22.29-.34.68-.5,1.15-.5.36,0,.73.11,1.09.31.36.21.7.46,1.01.76.31.29.57.58.8.86.22.28.36.48.42.59.06-.03.18-.04.38-.04.53,0,1.04.13,1.53.4.49.27.94.61,1.34,1.03.41.42.76.87,1.07,1.34.31.48.57.92.8,1.34.22.42.43.88.61,1.36.18.49.33.99.44,1.49.11.5.2.99.25,1.47.06.48.08.91.08,1.3,0,1.15-.15,2.22-.44,3.21-.29.99-.77,1.87-1.43,2.62-.66.76-1.52,1.35-2.58,1.79-1.06.43-2.37.65-3.91.65-1.12,0-2.04-.34-2.75-1.01-.71-.67-1.27-1.46-1.66-2.37-.39-.91-.67-1.84-.82-2.79-.15-.95-.23-1.72-.23-2.31s.07-1.11.21-1.64c.14-.53.32-1.03.55-1.49.22-.46.46-.87.69-1.24.24-.36.47-.67.69-.92l2.1-2.48c-.03-.11-.12-.25-.27-.4s-.3-.3-.44-.44l-.55-.38ZM150.62,50.02l-.17.25c-.34.42-.71.85-1.11,1.3-.41.45-.79.91-1.16,1.39-.36.48-.67.99-.92,1.55-.25.56-.38,1.18-.38,1.85,0,.62.05,1.22.15,1.83.1.6.24,1.14.42,1.62.18.48.41.86.69,1.16.28.29.6.44.97.44.31,0,.62-.03.94-.08.32-.06.61-.11.86-.17l1.51-.76c.08-.11.22-.26.42-.44.2-.18.35-.37.46-.57.25-.92.38-1.83.38-2.73,0-1.18-.2-2.3-.59-3.38-.39-1.08-.99-2.06-1.81-2.96l-.5-.25h-.04c-.06,0-.1-.01-.13-.04Z"/><path class="cls-1" d="M187.02,54.43c.06-.28.08-.41.08-.38-.34.34-.64.52-.92.55h-5.46c-1.62,0-3.16-.04-4.62-.13.06,1.18.1,2.38.13,3.61.03,1.23.04,2.51.04,3.82,0,.48-.17.86-.5,1.16-.34.29-.7.44-1.09.44s-.79-.13-1.2-.38c-.41-.25-.61-.69-.61-1.3,0-3.47-.11-6.89-.34-10.27-.22-3.37-.39-6.81-.5-10.31.14-.5.35-.88.63-1.13.28-.25.63-.41,1.05-.46.81,0,1.4.5,1.76,1.51.06,1.71.12,3.38.19,5.02.07,1.64.16,3.25.27,4.85,1.54.08,3.18.13,4.91.13h5.42c.28.11.55.32.8.63.03,0,.04-.08.04-.25v-.34c.03-.67.05-1.46.06-2.37.01-.91.04-1.89.08-2.94.04-1.05.1-2.13.17-3.23.07-1.11.15-2.16.23-3.17.14-.5.38-.89.73-1.16.35-.27.69-.4,1.03-.4.45,0,.83.17,1.15.53.32.35.48.82.48,1.41-.17,2.3-.29,4.56-.36,6.8-.07,2.24-.15,4.55-.23,6.93l-.25,4.66c-.03.36-.06.88-.08,1.53-.03.66-.11,1.3-.25,1.93-.14.63-.36,1.18-.65,1.66-.29.48-.73.71-1.32.71-.42,0-.8-.15-1.13-.44-.34-.29-.5-.75-.5-1.37,0-.2.01-.34.04-.42.11-.5.2-1.15.27-1.95.07-.8.14-1.58.21-2.35.07-.77.12-1.46.15-2.06.03-.6.06-.96.08-1.07Z"/><path class="cls-1" d="M197.23,47.33c-.39-.45-.59-.88-.59-1.3,0-.48.15-.88.44-1.22.29-.34.68-.5,1.15-.5.36,0,.73.11,1.09.31.36.21.7.46,1.01.76.31.29.57.58.8.86.22.28.36.48.42.59.06-.03.18-.04.38-.04.53,0,1.04.13,1.53.4.49.27.94.61,1.34,1.03.41.42.76.87,1.07,1.34.31.48.57.92.8,1.34.22.42.43.88.61,1.36.18.49.33.99.44,1.49.11.5.2.99.25,1.47.06.48.08.91.08,1.3,0,1.15-.15,2.22-.44,3.21-.29.99-.77,1.87-1.43,2.62-.66.76-1.52,1.35-2.58,1.79-1.06.43-2.37.65-3.91.65-1.12,0-2.04-.34-2.75-1.01-.71-.67-1.27-1.46-1.66-2.37-.39-.91-.67-1.84-.82-2.79-.15-.95-.23-1.72-.23-2.31s.07-1.11.21-1.64c.14-.53.32-1.03.55-1.49.22-.46.46-.87.69-1.24.24-.36.47-.67.69-.92l2.1-2.48c-.03-.11-.12-.25-.27-.4s-.3-.3-.44-.44l-.55-.38ZM201.47,50.02l-.17.25c-.34.42-.71.85-1.11,1.3-.41.45-.79.91-1.16,1.39-.36.48-.67.99-.92,1.55-.25.56-.38,1.18-.38,1.85,0,.62.05,1.22.15,1.83.1.6.24,1.14.42,1.62.18.48.41.86.69,1.16.28.29.6.44.97.44.31,0,.62-.03.94-.08.32-.06.61-.11.86-.17l1.51-.76c.08-.11.22-.26.42-.44.2-.18.35-.37.46-.57.25-.92.38-1.83.38-2.73,0-1.18-.2-2.3-.59-3.38-.39-1.08-.99-2.06-1.81-2.96l-.5-.25h-.04c-.06,0-.1-.01-.13-.04Z"/><path class="cls-1" d="M211.92,46.54c.11-.03.24-.04.38-.04s.31-.01.5-.04h.5c1.37,0,2.38.5,3.02,1.51l.17-.17c.11-.03.29-.17.55-.42l.13-.04c.78-.39,1.48-.59,2.1-.59,1.26,0,2.29.39,3.11,1.18.81.78,1.46,1.71,1.93,2.77,0,.03.03.07.08.13l.04.04c.28-.42.6-.83.97-1.24.36-.41.75-.77,1.16-1.09.41-.32.83-.58,1.26-.78.43-.2.87-.29,1.32-.29.76,0,1.44.27,2.06.82.62.54,1.14,1.25,1.58,2.12.43.87.78,1.85,1.03,2.94s.38,2.2.38,3.32-.04,2.25-.13,3.38c-.08,1.13-.13,2.29-.13,3.46-.14.67-.39,1.08-.76,1.24-.36.15-.67.23-.92.23l-.97-.34c-.11-.11-.34-.41-.67-.88v-.04s-.04-.01-.04-.04,0-.04-.02-.04c-.01,0-.02-.03-.02-.08l-.08-.29c-.08-.25-.13-.52-.13-.8,0-.22.04-.44.11-.65.07-.21.13-.38.19-.53l.13-1.05c.06-.56.1-1.13.13-1.7.03-.57.04-1.16.04-1.74,0-1.12-.13-2.18-.38-3.19s-.7-1.82-1.34-2.44c-.81.5-1.46,1.15-1.95,1.93-.49.78-.87,1.67-1.13,2.65-.27.98-.45,2.02-.54,3.13-.1,1.11-.15,2.2-.15,3.3,0,.45-.17.84-.5,1.18s-.7.5-1.09.5-.79-.13-1.2-.38c-.41-.25-.61-.7-.61-1.34s0-1.36.02-2.06c.01-.7.05-1.46.1-2.27,0-.81-.04-1.62-.1-2.44-.07-.81-.19-1.57-.36-2.27-.17-.7-.41-1.31-.71-1.83-.31-.52-.7-.89-1.18-1.11-.31,0-.59.06-.86.17-.27.11-.53.24-.78.38l-.13.08c-.31.31-.5.48-.59.5,0,.84.07,1.71.21,2.6.14.9.21,1.82.21,2.77,0,.7-.02,1.5-.06,2.41-.04.91-.15,1.78-.31,2.6-.17.83-.41,1.53-.73,2.1-.32.57-.78.86-1.37.86-.42,0-.82-.14-1.2-.42-.38-.28-.57-.74-.57-1.39,0-.17.01-.29.04-.38.53-1.85.8-3.91.8-6.17,0-2.38-.22-4.38-.67-6l-.13-.17c-.28-.03-.58-.08-.9-.17-.32-.08-.62-.2-.9-.36-.28-.15-.52-.35-.71-.59-.2-.24-.29-.54-.29-.9,0-.7.36-1.22,1.09-1.55Z"/><path class="cls-1" d="M241.19,55.86l-.13-.46c.34,1.48,1.15,2.7,2.44,3.65.28.22.64.42,1.07.59.43.17.87.32,1.3.46.43.14.82.25,1.15.31.34.07.55.11.63.11.28-.25.63-.38,1.05-.38.5.06.9.26,1.18.61.28.35.42.72.42,1.11,0,.62-.29,1.11-.86,1.49-.57.38-1.18.57-1.83.57-1.37,0-2.67-.27-3.91-.82-1.23-.54-2.31-1.28-3.23-2.2s-1.67-1.99-2.25-3.19c-.57-1.2-.89-2.48-.95-3.82,0-.92.07-1.92.21-2.98.14-1.06.43-2.05.88-2.96.45-.91,1.1-1.67,1.95-2.29.85-.62,1.99-.92,3.42-.92.9,0,1.74.19,2.52.57.78.38,1.46.89,2.04,1.53.57.64,1.03,1.38,1.36,2.21.34.83.5,1.69.5,2.58,0,.81-.15,1.53-.44,2.14-.29.62-.69,1.13-1.2,1.53-.5.41-1.1.71-1.79.92-.69.21-1.41.32-2.16.32-.31,0-.65-.03-1.03-.08-.38-.06-.73-.12-1.07-.19-.34-.07-.62-.14-.86-.21-.24-.07-.38-.13-.44-.19ZM240.86,51.78c-.06.03-.08.06-.08.08h.08c.2,0,.39.05.59.15.2.1.36.21.5.34.14.13.26.24.36.34s.16.15.19.15c.42.2.88.29,1.39.29.81,0,1.5-.12,2.06-.36.56-.24.84-.82.84-1.74-.17-.56-.36-1.02-.57-1.39-.21-.36-.55-.71-1.03-1.05l-.88-.38h-.59c-.22,0-.52.06-.88.17-.36.11-.73.27-1.09.46-.11.17-.22.41-.34.73-.11.32-.21.64-.29.95-.08.31-.15.59-.19.84-.04.25-.06.39-.06.42Z"/></g></svg>