<?xml version="1.0" encoding="UTF-8"?><svg id="Layer_2" xmlns="http://www.w3.org/2000/svg" viewBox="0 0 343.91 274.03"><defs><style>.cls-1{fill:#fff;}.cls-1,.cls-2,.cls-3{stroke:#000;stroke-miterlimit:10;stroke-width:4px;}.cls-2{fill:#dd5532;}</style></defs><g id="Layer_6"><path class="cls-3" d="M5.92,142.53c5.89,34.87,21.26,84.87,28.73,108.15,2.52,7.86,8.38,17.91,15.77,18.85l52,2.06L68.68,25.85S24.63,36.04,6.81,58.53c-8.29,10.46-4,65.59-.89,84Z"/><path class="cls-2" d="M64.5,250.03c-5.93-18.78-28.5-174.5-27.5-189.5.87-13.12,5.58-26.25,27.51-34.69,3.13-1.21,6.62-2.31,10.49-3.31C106,14.53,258,2.53,270,2.53s46-8,55,38c4.1,20.96,12.14,62.1,15,97,3.42,41.68,1.26,76.75,1,89-.5,23.5-2.5,45.5-54.5,45.5s-202.64-.5-202.64-.5c0,0-13.36-2.5-19.36-21.5Z"/><path class="cls-1" d="M77.5,79.03c2-15,10-33,24-35s65-10,74-10,88-13,102-5,18.25,39,18.13,50,8.87,77,2.87,89-8,15-18,18-125.43,11.3-143.5,12.5c-15,1-36.5,11.5-40.5-9.5s-11.5-35.5-12-51.89c-.28-9.16-7-58.11-7-58.11Z"/></g></svg>