<?xml version="1.0" encoding="UTF-8"?><svg id="Layer_2" xmlns="http://www.w3.org/2000/svg" viewBox="0 0 301.17 255.03"><defs><style>.cls-1{fill:#fff;}.cls-1,.cls-2{stroke:#000;stroke-miterlimit:10;stroke-width:4px;}.cls-2{fill:#dd5532;}</style></defs><g id="Layer_6"><path class="cls-2" d="M22.55,231.03C16.61,212.25,1.05,75.53,2.05,60.53s7-30,38-38S223.05,2.53,235.05,2.53s46-8,55,38,9.48,144.5,9,167c-.5,23.5-2.5,45.5-54.5,45.5s-202.64-.5-202.64-.5c0,0-13.36-2.5-19.36-21.5Z"/><path class="cls-1" d="M42.55,79.03c2-15,10-33,24-35s65-10,74-10,88-13,102-5,18.25,39,18.13,50,1.87,58-4.13,70-8,15-18,18-125.43,11.3-143.5,12.5c-15,1-36.5,11.5-40.5-9.5s-11.5-35.5-12-51.89c-.28-9.16,0-39.11,0-39.11Z"/></g></svg>