<?xml version="1.0" encoding="UTF-8"?><svg id="Layer_2" xmlns="http://www.w3.org/2000/svg" viewBox="0 0 256.82 102.1"><defs><style>.cls-1{fill:#ec7666;stroke-width:5px;}.cls-1,.cls-2{stroke:#000;stroke-miterlimit:10;}.cls-2{stroke-width:1.2px;}</style></defs><g id="Layer_7"><path class="cls-1" d="M53.38,3.99c32.92-2,73.62-1.49,81.74-1,20.35,1.23,61.34-1.57,81.05,0,25.1,2,36.62,21.34,38.13,51.41.4,7.88-6.07,43.64-46.31,44.61-24.3.59-80.33-.72-88.76.13s-79.07.34-81.75,0c-16.27-2.07-27.66-6.92-32.21-27.28C1.12,53.28.39,38.9,11.95,21.42,23.49,3.97,41.45,4.72,53.38,3.99Z"/><path class="cls-2" d="M39.11,59.19c-.25-.34-.46-.74-.61-1.22-.15-.48-.27-.98-.36-1.51-.08-.53-.15-1.08-.19-1.64-.04-.56-.08-1.09-.1-1.6l-.25-5.04c-.08-.81-.15-1.43-.19-1.85-.04-.42-.08-.85-.13-1.28-.04-.43-.07-.97-.08-1.6-.01-.63-.02-1.56-.02-2.79,0-.42,0-.83-.02-1.22-.01-.39-.02-.78-.02-1.18,0-1.01.26-1.7.78-2.08.52-.38,1.18-.57,1.99-.57.48,0,.98.02,1.51.06.53.04,1.06.06,1.6.06.98,0,1.95-.13,2.9-.4.95-.27,1.88-.48,2.77-.65.56,0,1.04.15,1.43.44.39.29.59.65.59,1.07,0,.39-.13.78-.38,1.15-.25.38-.66.62-1.22.74-1.09.22-2.21.48-3.36.76-1.15.28-2.31.42-3.49.42h-.92c-.31,0-.57-.03-.8-.08.03,1.06.06,2.09.08,3.07.03.98.07,1.93.13,2.86h.04c2.13-.22,4.13-.36,6-.4,1.88-.04,3.86-.06,5.96-.06,1.04.28,1.55.85,1.55,1.72,0,.39-.15.75-.44,1.07-.29.32-.69.53-1.2.61h-1.32c-.66,0-1.42,0-2.29.02-.87.01-1.78.03-2.73.04-.95.01-1.83.04-2.62.08-.8.04-1.46.09-1.97.15-.52.06-.78.13-.78.21,0,1.26.08,2.51.23,3.76.15,1.25.29,2.47.4,3.67.76-.28,1.58-.52,2.48-.74.9-.21,1.83-.37,2.79-.48.97-.11,1.95-.2,2.96-.25,1.01-.06,1.99-.08,2.94-.08.56.22.96.48,1.2.78.24.29.36.62.36.99,0,.39-.15.75-.44,1.07-.29.32-.69.53-1.2.61-1.29,0-2.63.09-4.03.27-1.4.18-2.69.39-3.88.63-1.19.24-2.2.45-3.04.63-.84.18-1.34.27-1.51.27-.14,0-.3-.05-.48-.15-.18-.1-.38-.22-.61-.36Z"/><path class="cls-2" d="M58.14,43.07c.11-.03.24-.04.38-.04s.31-.01.5-.04h.04c1.01,0,1.79.16,2.33.48.55.32,1.01.86,1.41,1.62.56-.56,1.13-.96,1.72-1.2.59-.24,1.2-.36,1.85-.36,1.09,0,2.07.27,2.94.82.87.55,1.6,1.27,2.21,2.16.6.9,1.06,1.94,1.38,3.13.32,1.19.48,2.42.48,3.67,0,1.18-.09,2.32-.27,3.44-.18,1.12-.32,2.18-.4,3.19-.31.73-.84,1.18-1.6,1.34h-.17c-.39-.06-.78-.21-1.16-.46-.38-.25-.57-.7-.57-1.34l.04-.42c.03-.14.06-.26.08-.36.03-.1.06-.19.08-.27l.25-1.85c.06-.5.1-1.01.15-1.51.04-.5.06-1.02.06-1.55,0-.56-.05-1.22-.15-1.97-.1-.76-.29-1.48-.57-2.16-.28-.69-.67-1.27-1.18-1.74-.5-.48-1.16-.71-1.97-.71-.31.17-.66.36-1.05.59-.39.22-.76.34-1.09.34h-.17c-.08,0-.13.03-.13.08,0,.03,0,.04.02.04.01,0,.02.01.02.04.14.81.25,1.65.32,2.52.07.87.1,1.75.1,2.65,0,.7-.02,1.5-.06,2.41-.04.91-.15,1.78-.31,2.6-.17.83-.41,1.53-.73,2.1-.32.57-.78.86-1.37.86-.42,0-.82-.14-1.2-.42-.38-.28-.57-.74-.57-1.39,0-.17.01-.29.04-.38.53-1.85.8-3.91.8-6.17,0-2.38-.22-4.38-.67-6l-.13-.17c-.28-.03-.58-.08-.9-.17-.32-.08-.62-.2-.9-.36-.28-.15-.52-.35-.71-.59-.2-.24-.29-.54-.29-.9,0-.7.36-1.22,1.09-1.55Z"/><path class="cls-2" d="M84.93,36.01c-.36-.17-.64-.41-.84-.74-.2-.32-.29-.64-.29-.94,0-.39.15-.77.46-1.13.31-.36.77-.55,1.39-.55,1.34.25,2.37.62,3.07,1.11.7.49,1.2,1.09,1.51,1.81.31.71.48,1.53.5,2.46.03.92.04,1.93.04,3.02s-.01,2.06-.04,3.07c-.03,1.01-.04,2.04-.04,3.11v3.44c0,.53-.01,1.1-.04,1.7-.03.6-.06,1.2-.08,1.78-.03.59-.06,1.15-.08,1.68-.03.53-.04.98-.04,1.34,0,1.34-.44,2.36-1.32,3.04-.88.69-2.46,1.03-4.72,1.03-1.2,0-2.3-.29-3.3-.88-.99-.59-1.85-1.34-2.56-2.25-.71-.91-1.27-1.9-1.68-2.98-.41-1.08-.61-2.12-.61-3.13,0-1.37.28-2.52.84-3.44.56-.92,1.26-1.65,2.1-2.18.84-.53,1.73-.91,2.67-1.13.94-.22,1.78-.34,2.54-.34.48,0,.95,0,1.43.02.48.01.97.02,1.47.02.03-.92.06-1.91.08-2.96.03-1.05.04-2.08.04-3.09,0-.45-.04-.87-.1-1.26-.07-.39-.22-.77-.44-1.13-.31-.17-.6-.27-.88-.32-.28-.04-.63-.1-1.05-.19ZM87.24,48.49l.04-.08-.04-.04c-.67,0-1.38-.01-2.12-.04-.74-.03-1.46.02-2.14.15-.69.13-1.3.36-1.85.71-.54.35-.96.89-1.24,1.62-.06.17-.11.36-.15.59-.04.22-.09.43-.15.63.22,1.85.78,3.21,1.68,4.07.9.87,2.27,1.41,4.12,1.64.28-.08.55-.15.82-.21.27-.06.48-.1.65-.13.06-1.29.13-2.59.23-3.91.1-1.32.15-2.67.15-4.07v-.92Z"/><path class="cls-2" d="M120.2,35.72c.25.48.38.92.38,1.34,0,.39-.16.73-.48,1.03-.32.29-.74.44-1.24.44-.34,0-.64-.07-.92-.21-1.09-.92-2.28-1.39-3.57-1.39-1.46,0-2.69.59-3.7,1.76-.03.11-.06.24-.11.38-.04.14-.09.27-.15.38,0,1.18.31,2.15.92,2.92.62.77,1.39,1.46,2.31,2.06.92.6,1.92,1.17,2.98,1.7,1.06.53,2.06,1.15,2.98,1.85.92.7,1.69,1.55,2.31,2.54.62.99.92,2.23.92,3.72,0,1.23-.29,2.27-.86,3.11-.57.84-1.29,1.52-2.16,2.04-.87.52-1.79.9-2.77,1.13-.98.24-1.89.36-2.73.36-1.46,0-2.88-.3-4.28-.9-1.4-.6-2.62-1.5-3.65-2.71-.22-.31-.45-.7-.67-1.18-.22-.48-.34-.94-.34-1.39,0-.48.15-.89.44-1.24.29-.35.72-.53,1.28-.53.53,0,.96.23,1.28.69.32.46.61,1.03.86,1.7.73.73,1.51,1.27,2.35,1.62.84.35,1.71.53,2.6.53.34,0,.76-.04,1.26-.11.5-.07,1-.19,1.49-.36.49-.17.94-.38,1.34-.65.41-.27.69-.59.86-.99.06-.22.11-.41.15-.57.04-.15.09-.3.15-.44-.17-.95-.51-1.78-1.03-2.48-.52-.7-1.13-1.32-1.83-1.85-.7-.53-1.43-.99-2.2-1.39-.77-.39-1.48-.77-2.12-1.13-1.15-.64-2.18-1.42-3.11-2.33-.92-.91-1.62-2.23-2.1-3.97-.14-.5-.21-.98-.21-1.43,0-.95.24-1.82.71-2.6.48-.78,1.09-1.45,1.85-2,.76-.54,1.61-.97,2.56-1.28.95-.31,1.92-.46,2.9-.46,1.15,0,2.14.2,2.98.61.84.41,1.62.96,2.35,1.66Z"/><path class="cls-2" d="M129.52,52.39l-.13-.46c.34,1.48,1.15,2.7,2.44,3.65.28.22.64.42,1.07.59.43.17.87.32,1.3.46.43.14.82.25,1.15.31.34.07.55.11.63.11.28-.25.63-.38,1.05-.38.5.06.9.26,1.18.61.28.35.42.72.42,1.11,0,.62-.29,1.11-.86,1.49-.57.38-1.18.57-1.83.57-1.37,0-2.67-.27-3.91-.82-1.23-.54-2.31-1.28-3.23-2.2s-1.67-1.99-2.25-3.19c-.57-1.2-.89-2.48-.95-3.82,0-.92.07-1.92.21-2.98.14-1.06.43-2.05.88-2.96.45-.91,1.1-1.67,1.95-2.29.85-.62,1.99-.92,3.42-.92.9,0,1.74.19,2.52.57.78.38,1.46.89,2.04,1.53.57.64,1.03,1.38,1.36,2.21.34.83.5,1.69.5,2.58,0,.81-.15,1.53-.44,2.14-.29.62-.69,1.13-1.2,1.53-.5.41-1.1.71-1.79.92-.69.21-1.41.32-2.16.32-.31,0-.65-.03-1.03-.08-.38-.06-.73-.12-1.07-.19-.34-.07-.62-.14-.86-.21-.24-.07-.38-.13-.44-.19ZM129.19,48.32c-.06.03-.08.06-.08.08h.08c.2,0,.39.05.59.15.2.1.36.21.5.34.14.13.26.24.36.34s.16.15.19.15c.42.2.88.29,1.39.29.81,0,1.5-.12,2.06-.36.56-.24.84-.82.84-1.74-.17-.56-.36-1.02-.57-1.39-.21-.36-.55-.71-1.03-1.05l-.88-.38h-.59c-.22,0-.52.06-.88.17-.36.11-.73.27-1.09.46-.11.17-.22.41-.34.73-.11.32-.21.64-.29.95-.08.31-.15.59-.19.84-.04.25-.06.39-.06.42Z"/><path class="cls-2" d="M152.49,41.89c.45.14.78.38,1.01.71.22.34.34.67.34,1.01,0,.48-.17.88-.5,1.2-.34.32-.74.48-1.22.48-.14,0-.25-.01-.34-.04-.59-.17-1.13-.3-1.64-.4-.5-.1-.99-.15-1.47-.15-.42,0-.84.04-1.26.13s-.87.2-1.34.34l-.04.04c.42.81.99,1.53,1.72,2.14.73.62,1.48,1.24,2.27,1.87.78.63,1.53,1.3,2.25,2,.71.7,1.24,1.51,1.57,2.44.14.36.21.74.21,1.13,0,.59-.11,1.2-.34,1.85-.22.64-.55,1.23-.99,1.76-.43.53-.99.97-1.66,1.32-.67.35-1.47.53-2.39.53-1.04,0-1.98-.16-2.83-.48-.85-.32-1.6-.75-2.25-1.28l-.8-.5-.38-.38c-.42-.36-.64-.81-.67-1.34v-.25c.08-.53.27-.92.57-1.16.29-.24.65-.38,1.07-.44.56,0,1.08.29,1.55.88l1.01.55c.39.22.83.45,1.32.67.49.22.97.34,1.45.34.39,0,.77-.11,1.13-.34l.25-.21c.08-.25.16-.5.23-.76.07-.25.1-.49.1-.71,0-.42-.09-.78-.27-1.07-.18-.29-.42-.56-.71-.8-.29-.24-.61-.46-.94-.67-.34-.21-.67-.44-1.01-.69-.31-.22-.74-.58-1.28-1.07-.55-.49-1.1-1.04-1.66-1.66-.56-.62-1.04-1.27-1.45-1.95-.41-.69-.61-1.32-.61-1.91,0-.7.21-1.29.63-1.78.42-.49.94-.88,1.55-1.18.62-.29,1.26-.5,1.93-.63.67-.12,1.25-.19,1.72-.19.78,0,1.49.06,2.12.17.63.11,1.31.28,2.04.5Z"/><path class="cls-2" d="M167.78,41.89c.45.14.78.38,1.01.71.22.34.34.67.34,1.01,0,.48-.17.88-.5,1.2-.34.32-.74.48-1.22.48-.14,0-.25-.01-.34-.04-.59-.17-1.13-.3-1.64-.4-.5-.1-.99-.15-1.47-.15-.42,0-.84.04-1.26.13s-.87.2-1.34.34l-.04.04c.42.81.99,1.53,1.72,2.14.73.62,1.48,1.24,2.27,1.87.78.63,1.53,1.3,2.25,2,.71.7,1.24,1.51,1.57,2.44.14.36.21.74.21,1.13,0,.59-.11,1.2-.34,1.85-.22.64-.55,1.23-.99,1.76-.43.53-.99.97-1.66,1.32-.67.35-1.47.53-2.39.53-1.04,0-1.98-.16-2.83-.48-.85-.32-1.6-.75-2.25-1.28l-.8-.5-.38-.38c-.42-.36-.64-.81-.67-1.34v-.25c.08-.53.27-.92.57-1.16.29-.24.65-.38,1.07-.44.56,0,1.08.29,1.55.88l1.01.55c.39.22.83.45,1.32.67.49.22.97.34,1.45.34.39,0,.77-.11,1.13-.34l.25-.21c.08-.25.16-.5.23-.76.07-.25.1-.49.1-.71,0-.42-.09-.78-.27-1.07-.18-.29-.42-.56-.71-.8-.29-.24-.61-.46-.94-.67-.34-.21-.67-.44-1.01-.69-.31-.22-.74-.58-1.28-1.07-.55-.49-1.1-1.04-1.66-1.66-.56-.62-1.04-1.27-1.45-1.95-.41-.69-.61-1.32-.61-1.91,0-.7.21-1.29.63-1.78.42-.49.94-.88,1.55-1.18.62-.29,1.26-.5,1.93-.63.67-.12,1.25-.19,1.72-.19.78,0,1.49.06,2.12.17.63.11,1.31.28,2.04.5Z"/><path class="cls-2" d="M175.8,41.89c-.34-.14-.61-.36-.82-.65-.21-.29-.31-.59-.31-.9,0-.42.15-.83.44-1.22.29-.39.76-.59,1.41-.59.81.14,1.53.38,2.14.71.62.34,1.25.55,1.89.63.5.14.87.38,1.09.74.22.35.34.69.34,1.03,0,.39-.15.77-.44,1.13-.29.36-.68.55-1.15.55-.42,0-.82-.06-1.2-.17-.38-.11-.75-.25-1.11-.42-.36-.17-.73-.33-1.09-.48-.36-.15-.76-.27-1.18-.36ZM177.6,48.02c.14-.64.39-1.07.76-1.28.36-.21.78-.32,1.26-.32.39.06.73.27,1.01.63.28.36.42.81.42,1.34-.06,1.09-.11,2.06-.17,2.92-.06.85-.1,1.69-.13,2.5-.03.81-.05,1.66-.06,2.54-.01.88-.02,1.9-.02,3.04,0,.48-.18.88-.55,1.2-.36.32-.74.48-1.13.48s-.77-.14-1.13-.42c-.36-.28-.57-.71-.63-1.3,0-2.21.04-4.1.13-5.67l.25-5.67Z"/><path class="cls-2" d="M190.03,43.87c-.39-.45-.59-.88-.59-1.3,0-.48.15-.88.44-1.22.29-.34.68-.5,1.15-.5.36,0,.73.11,1.09.31.36.21.7.46,1.01.76.31.29.57.58.8.86.22.28.36.48.42.59.06-.03.18-.04.38-.04.53,0,1.04.13,1.53.4.49.27.94.61,1.34,1.03.41.42.76.87,1.07,1.34.31.48.57.92.8,1.34.22.42.43.88.61,1.36.18.49.33.99.44,1.49.11.5.2.99.25,1.47.06.48.08.91.08,1.3,0,1.15-.15,2.22-.44,3.21-.29.99-.77,1.87-1.43,2.62-.66.76-1.52,1.35-2.58,1.79-1.06.43-2.37.65-3.91.65-1.12,0-2.04-.34-2.75-1.01-.71-.67-1.27-1.46-1.66-2.37-.39-.91-.67-1.84-.82-2.79-.15-.95-.23-1.72-.23-2.31s.07-1.11.21-1.64c.14-.53.32-1.03.55-1.49.22-.46.46-.87.69-1.24.24-.36.47-.67.69-.92l2.1-2.48c-.03-.11-.12-.25-.27-.4s-.3-.3-.44-.44l-.55-.38ZM194.28,46.55l-.17.25c-.34.42-.71.85-1.11,1.3-.41.45-.79.91-1.16,1.39-.36.48-.67.99-.92,1.55-.25.56-.38,1.18-.38,1.85,0,.62.05,1.22.15,1.83.1.6.24,1.14.42,1.62.18.48.41.86.69,1.16.28.29.6.44.97.44.31,0,.62-.03.94-.08.32-.06.61-.11.86-.17l1.51-.76c.08-.11.22-.26.42-.44.2-.18.35-.37.46-.57.25-.92.38-1.83.38-2.73,0-1.18-.2-2.3-.59-3.38-.39-1.08-.99-2.06-1.81-2.96l-.5-.25h-.04c-.06,0-.1-.01-.13-.04Z"/><path class="cls-2" d="M204.73,43.07c.11-.03.24-.04.38-.04s.31-.01.5-.04h.04c1.01,0,1.79.16,2.33.48.55.32,1.01.86,1.41,1.62.56-.56,1.13-.96,1.72-1.2.59-.24,1.2-.36,1.85-.36,1.09,0,2.07.27,2.94.82.87.55,1.6,1.27,2.21,2.16.6.9,1.06,1.94,1.38,3.13.32,1.19.48,2.42.48,3.67,0,1.18-.09,2.32-.27,3.44-.18,1.12-.32,2.18-.4,3.19-.31.73-.84,1.18-1.6,1.34h-.17c-.39-.06-.78-.21-1.16-.46-.38-.25-.57-.7-.57-1.34l.04-.42c.03-.14.06-.26.08-.36.03-.1.06-.19.08-.27l.25-1.85c.06-.5.1-1.01.15-1.51.04-.5.06-1.02.06-1.55,0-.56-.05-1.22-.15-1.97-.1-.76-.29-1.48-.57-2.16-.28-.69-.67-1.27-1.18-1.74-.5-.48-1.16-.71-1.97-.71-.31.17-.66.36-1.05.59-.39.22-.76.34-1.09.34h-.17c-.08,0-.13.03-.13.08,0,.03,0,.04.02.04.01,0,.02.01.02.04.14.81.25,1.65.32,2.52.07.87.1,1.75.1,2.65,0,.7-.02,1.5-.06,2.41-.04.91-.15,1.78-.31,2.6-.17.83-.41,1.53-.73,2.1-.32.57-.78.86-1.37.86-.42,0-.82-.14-1.2-.42-.38-.28-.57-.74-.57-1.39,0-.17.01-.29.04-.38.53-1.85.8-3.91.8-6.17,0-2.38-.22-4.38-.67-6l-.13-.17c-.28-.03-.58-.08-.9-.17-.32-.08-.62-.2-.9-.36-.28-.15-.52-.35-.71-.59-.2-.24-.29-.54-.29-.9,0-.7.36-1.22,1.09-1.55Z"/></g></svg>