<?xml version="1.0" encoding="UTF-8"?><svg id="Layer_2" xmlns="http://www.w3.org/2000/svg" viewBox="0 0 55.64 93.73"><defs><style>.cls-1{stroke-width:0px;}</style></defs><g id="Layer_3"><path class="cls-1" d="M43.35,2.86c4.03,1.91,7.08,4.46,9.17,7.67,2.08,3.21,3.12,6.72,3.12,10.53,0,3.47-.61,6.44-1.82,8.91-1.21,2.47-2.69,4.48-4.42,6.04-1.73,1.56-3.99,3.29-6.76,5.2-3.55,2.34-6.2,4.51-7.93,6.5-1.73,1.99-2.6,4.64-2.6,7.93v4.42h-15.47v-5.07c0-3.9.63-7.21,1.88-9.94,1.26-2.73,2.75-4.9,4.49-6.5,1.73-1.6,3.99-3.36,6.76-5.27,2.95-1.99,5.09-3.73,6.44-5.2,1.34-1.47,2.02-3.38,2.02-5.72,0-2.86-.98-5.09-2.93-6.7-1.95-1.6-4.61-2.4-7.99-2.4-6.15,0-11.66,2.86-16.51,8.58L0,13.39C7.54,4.46,17.12,0,28.73,0c5.72,0,10.6.95,14.62,2.86ZM32.11,75.72c2.08,2.04,3.12,4.53,3.12,7.48s-1.04,5.33-3.12,7.41c-2.08,2.08-4.59,3.12-7.54,3.12s-5.31-1.04-7.35-3.12c-2.04-2.08-3.06-4.55-3.06-7.41s1-5.44,2.99-7.48c1.99-2.04,4.46-3.05,7.41-3.05s5.46,1.02,7.54,3.05Z"/></g></svg>