<?xml version="1.0" encoding="UTF-8"?><svg id="Layer_2" xmlns="http://www.w3.org/2000/svg" viewBox="0 0 264.02 391.89"><defs><style>.cls-1{stroke-miterlimit:10;}.cls-1,.cls-2,.cls-3,.cls-4{stroke:#000;}.cls-2{fill:#fff;}.cls-2,.cls-3,.cls-4{stroke-linecap:round;stroke-linejoin:round;stroke-width:4px;}.cls-3{fill:none;}.cls-4{fill:#f7e579;}.cls-5{stroke-width:0px;}</style></defs><g id="Layer_7"><path class="cls-2" d="M168.02,312.91c2,1,38,37,51,39s43-38,43-43-12.26-9.76-17.13-5.88-39.87-33.12-39.87-33.12l-37,43Z"/><path class="cls-2" d="M67.52,305.41c-1,2-4,53-4,59s-7,4-9,12,6,10.82,13,12.91,40-1.91,46-5.91,4-65,4-75-50-3-50-3Z"/><path class="cls-4" d="M112.07,121.96l-33.56-4.25s-37.66,14.33-45.4,27.75c-7.74,13.42-1.24,66.4,0,75.35s-4.57,51.63,11.91,59.11c11.99,5.44,24.48,2.16,31,3,2.46.32,8.07-5.61,10.24-6.83l71.76-40.49-45.95-113.64Z"/><path class="cls-1" d="M54.52,149.41c-14,6-33.86,26.14-38,51-3,18-5.51,29.55,10,47,8,9,30,6,30,6,0,0-1.5-38.5,5.5-47.5s5,26,5,26c0,0-7,53-7,65v12s5,10,20,13,22,4,36,3,15.5-3.26,15.5-3.26c0,0,4.5-32.43,5.5-33.59s10.79,13.36,13,16.85c5.88,9.28,9.06,17.66,18,13,8.87-4.62,14-13,27.5-26.5,8-8,20.5-15.5,19.5-23.5s-16.5-19.65-19.5-26.5-11-44.08-12-54,3.41-9.19,0-7c-7.5,4.82,30,3,32,32,.68,3.32,24-18,22-34-.93-7.47-8.6-31.91-28-43-14-8-27.96-16.5-48-13-53.61,9.35-107,27-107,27Z"/><path class="cls-4" d="M173.02,117.74c0,2.17-3,42.17,3,61.17,5.12,16.21,9.42,36.91,20,41l-6,20s-29.76-22.74-34-39c-6-23-6.5-63.5-3-74s20-9.17,20-9.17Z"/><path class="cls-2" d="M137.02,25.91s18-19,23-22,10.18-2.49,12.09,1.75,3.91,44.25,3.91,44.25l-34-6-5-18Z"/><path class="cls-4" d="M45.02,141.91c.65.28,29.15,35.19,30,64,.69,23.47-18.35,48.98-22,56l9,13s30.88-33.97,35-68c2.82-23.28-18.66-55.31-21.5-59.7-7-10.8-30.5-5.3-30.5-5.3Z"/><path class="cls-2" d="M146.02,28.91s15-17,17-16,3,21,2,28-19-12-19-12Z"/><path class="cls-2" d="M180.02,108.91c-9,14-38,38-47,42s-48,11-71.61,3.91c-12.76-3.83-44.39-20.91-45.39-36.91-.73-11.69-.27-25.11,2-37-2.87-1.77-15.11-14.05-16-23-.89-8.87,23.39-10.66,32.38-10.26,5.47-6.95,10.62-12.74,10.62-12.74,0-1,9-14,27-21,11.79-4.58,32-12,46-6s27,10,36,17,27,14,29,29,6,41-3,55Z"/><path class="cls-2" d="M27.02,66.91c2-11,9-22,7.38-19.26"/><path class="cls-3" d="M24.02,72.91s-13.71-9.54-13-13c.34-1.64,13-3,18-1"/><ellipse class="cls-5" cx="75.52" cy="101.91" rx="2.5" ry="6" transform="translate(-14.43 12.48) rotate(-8.63)"/><ellipse class="cls-5" cx="131.52" cy="88.91" rx="2.5" ry="6" transform="translate(-11.85 20.73) rotate(-8.63)"/><path class="cls-2" d="M7.02,135.91s17-12,26-12"/><path class="cls-2" d="M20.02,154.88c5-8.98,17.91-19.35,17.91-19.35"/><path class="cls-2" d="M171.14,88.91c-.11,0,14.89-10,23.89-10"/><path class="cls-2" d="M173.02,96.91c11-4,28,0,28,0"/><path class="cls-5" d="M98.22,106.22c-1.16-.7-.95-2.43.33-2.84,4.32-1.38,11.47-2.48,12.47-.48.63,1.26-2.34,4.13-4.16,6.79-.47.68-1.39.88-2.1.46l-6.55-3.93Z"/><path class="cls-2" d="M104.28,106.09s2.74,5.81,3.74,13.81,1.91,16,3,24c.67,4.96.09,12.83.09,12.83"/><path class="cls-2" d="M62.02,205.91s39-10,46-2c9.22,10.54-3.64,30.45-10.57,34.48s-40.93,15.02-40.93,15.02c0,0-6.5-13.5-6.5-26.5,0-15,12-21,12-21Z"/><path class="cls-2" d="M187.02,178.58s-31.38,7.45-36,21.32c-3,9,0,16,9,20,11.61,5.16,51.92-.72,55-8,2.9-6.85,1.15-17.82-5-25s-23-8.32-23-8.32Z"/></g></svg>