<?xml version="1.0" encoding="UTF-8"?><svg id="Layer_2" xmlns="http://www.w3.org/2000/svg" viewBox="0 0 249.33 388.21"><defs><style>.cls-1{fill:#4b5c6b;}.cls-1,.cls-2,.cls-3,.cls-4,.cls-5,.cls-6,.cls-7{stroke:#000;stroke-linecap:round;stroke-linejoin:round;stroke-width:4px;}.cls-2{fill:#4ec65f;}.cls-3{fill:#fff;}.cls-4{fill:#e57667;}.cls-5{fill:none;}.cls-6{fill:#f7e579;}</style></defs><g id="Layer_7"><path class="cls-2" d="M55.26,254.8s-2.04,39.04-1.79,64.92c.1,10.68,10.66,23.79,11.85,26.32,4.07,8.66,18-4,18-4,0,0,7.37-8.02,7.77-21.27.73-24.43,1.53-59.84.23-63.73-2-6-36.07-2.24-36.07-2.24Z"/><path class="cls-2" d="M118.33,250.4c0,1.65-3,63.41,0,72.03s35,.62,35,.62c0,0,2-77.62-5-87.81s-30,15.16-30,15.16Z"/><path class="cls-2" d="M18.33,84.04c4.24-7.42,9-14,9-22s-2-18,3-32S47.33,4.04,62.33,7.04s18,11,18,11c0,0,24-7,43-1,0,0,11-16,24-15s25,5,26,19-2,17,4,26,18,42,16,53c-1.82,10.03-9,15-23.73,21.96-16.2,7.66-7.73,16.62,0,25.33s13.73,30.71,18.12,35.71c.26.29,17.23,13,30.92,15s16.67,18.94,11.68,21.47-25.99,10.53-42.99,2.53l-17-8s-.43,25.25-3.22,30.62-7.78,23.38-17.78,32.38-45.08,14.35-66.04,10.68-34.35-7.08-50.16-33.38,3.19-126.3,3.19-126.3c0,0-12.74-2.4-19-17-3-7-3-20,1-27Z"/><path class="cls-3" d="M82.33,42.04c0,6.19-2.81,11.72-7.22,15.39-3.47,2.88-7.92,4.61-12.78,4.61-5.52,0-10-3-14-6s-6-8.48-6-14c0-4.54,1.45-8.64,4-12,3.65-4.81,9.5-8,16-8s10,3,16.05,8.07c3.18,2.67,3.95,7.46,3.95,11.93Z"/><path class="cls-3" d="M167.33,32.04c-1,10-8.95,20-20,20-6.58,0-11-1-16.07-8.09-2.41-3.37-3.93-7.45-3.93-11.91,0-5.04,1.84-9.66,4.94-13.16,6.06-6.84,9.05-6.84,15.06-6.84,5,0,9.57,1.83,13.07,4.87,4.24,3.67,7.53,9.12,6.93,15.13Z"/><circle class="cls-7" cx="62.33" cy="42.04" r="10"/><circle class="cls-7" cx="147.33" cy="31.04" r="10"/><line class="cls-7" x1="99.33" y1="48.04" x2="99.33" y2="55.22"/><line class="cls-7" x1="110.33" y1="47.04" x2="113.47" y2="52.63"/><path class="cls-5" d="M47.33,90.04c9-7,36-15.71,59-15.87,23-.15,46,3.87,61,10.87"/><polygon class="cls-3" points="42.33 191.04 52.33 183.04 103.17 187.12 99.33 267.04 88.33 275.04 61.9 261.6 42.33 191.04"/><path class="cls-6" d="M113.47,240.12c-.14,6.92-1.86,16.05,0,16.49s10.42,0,10.42,0l3.44-11.91,5,9.34s9,3,10,1,0-16.76,0-16.76l5.04,12.82,8.4-3.57s3.44-22.73,0-32.61-3.44-68.89-4.44-71.89-31.82-5-35.41,0-6.59,52.38-5.59,57.69,1.57,22.44,1.57,22.44l1.57,16.95Z"/><polygon class="cls-1" points="42.33 191.04 35.33 269.04 88.33 275.04 95.33 196.04 42.33 191.04"/><path class="cls-2" d="M35.71,142.57l-12.3,14.38S3.33,183.04,2.33,202.04c-.53,9.99-1.92,26.93,10.54,33.97s61.46,11.47,67.46,4.03,2-21-8-23c-2.85-.57-12.99.61-22-1-7.25-1.3-11.28-3.34-16-9l-3-13"/><path class="cls-4" d="M210.33,175.04l36-2v63.34s-6,7.66-16,7.66c-16,0-15-5-15-5l-5-64Z"/><path class="cls-7" d="M247.33,173.04c0,3.31-8.95,6-20,6s-17-.69-17-4,5.95-8,17-8,20,2.69,20,6Z"/><line class="cls-7" x1="167.4" y1="173.04" x2="170.33" y2="214.04"/><path class="cls-6" d="M47.33,123.79c-8-.75-23.51-3.65-25.75,11.3s-5.09,14.77,1.83,21.86c3.46,3.55,18.19,6.92,34.18,9.08,11.99,1.62,40.44,1.58,57.51.89,5.69-.23,10.11-.53,12.23-.87,17-2.71,48.76-11.42,50.88-18.71s1.12-11.29-3.88-18.29-20-5-32-1-46,6-64,2-31-6.25-31-6.25Z"/><path class="cls-7" d="M60.33,367.04s-16,12-14,15c1.63,2.45,2.95,3.36,5,4,2.23.7,7.31-1,12-1,11,0,23-10,23-10l4.77-54.27s-21.47,1.63-37.62-1.05c0,0,2.85,37.32,6.85,47.32Z"/><path class="cls-7" d="M117.33,319.04s21.53,4.84,36.26-2.08c0,0-.4,22.14-1.26,29.08-1,8-2,14-2,21,0,0,8.92,9,10.46,10s2.43,8-2.51,8-25.32-2-30.95-6-6-23.97-7-32-3-28-3-28Z"/><path class="cls-5" d="M31.33,140.04c6.25,2.47,34.78,7.01,54,4.01"/><path class="cls-5" d="M60.25,154.24c16.18,2.38,25.1.56,45.18-.4"/></g></svg>