<?xml version="1.0" encoding="UTF-8"?><svg id="Layer_2" xmlns="http://www.w3.org/2000/svg" viewBox="0 0 330.93 414.23"><defs><style>.cls-1{fill:#5171af;}.cls-1,.cls-2,.cls-3,.cls-4,.cls-5,.cls-6,.cls-7,.cls-8{stroke:#000;stroke-linecap:round;stroke-linejoin:round;}.cls-1,.cls-2,.cls-3,.cls-4,.cls-5,.cls-6,.cls-8{stroke-width:4px;}.cls-2{fill:#4ec65f;}.cls-3{fill:#e56548;}.cls-4{fill:#fff;}.cls-5{fill:#ed8b3b;}.cls-6{fill:#f7e579;}</style></defs><g id="Layer_7"><path class="cls-8" d="M241,409.04c-4.25,1.06-36.16-9.57-36.16-9.57l-20.2-81.88h18.08l15.95,74.44s14.62,3.06,18.08,6.38c2.07,1.98,7.03,9.94,4.25,10.63Z"/><path class="cls-8" d="M109.14,405.85l-42.54,6.38s1.97-5.08,3.19-6.38c4.63-4.97,23.39-13.82,23.39-13.82l12.76-73.37h17.01l-13.82,87.2Z"/><path class="cls-6" d="M112.33,137.87c-1.06-3.19-22.98-92.11,2.64-115.91,22.88-21.27,60.58-31.9,86.93,1.06,26.34,32.97,25.28,91.45,27.41,99.96,0,0,48.92,72.31,35.09,122.29-13.82,49.98-25.52,75.5-56.36,89.33-30.84,13.82-113.25,9.57-132.12,0-18.88-9.57-47.96-17.66-31.64-36.16,15.95-18.08,48.92-49.98,48.92-49.98l-4.25-84.01,23.39-26.58Z"/><ellipse class="cls-4" cx="212.3" cy="51.21" rx="13.16" ry="33.06" transform="translate(-5.67 37.69) rotate(-10.01)"/><ellipse class="cls-8" cx="218.67" cy="43.23" rx="3.19" ry="10.63" transform="translate(-4.17 48.55) rotate(-12.55)"/><path class="cls-5" d="M191.02,61.31c16.48-5.99,54.52-10.36,60.23-4.12,5.7,6.24,7.06,19.65,0,26.77-7.06,7.12-52.26,27.37-69.53,25.22-7.35-.91-25.6-5.65-24.72-14.91,1.18-12.5,22.33-28.71,34.03-32.97Z"/><ellipse class="cls-4" cx="122.43" cy="78.85" rx="26.05" ry="35.62"/><ellipse class="cls-8" cx="113.39" cy="77.26" rx="9.57" ry="14.89"/><path class="cls-1" d="M112.33,137.87s18.46-5.53,23.59-4.89,51.29,42.27,54.04,66.57,0,96.77,0,96.77l-115.91,8.51s39.35-65.43,42.54-93.58,5.32-78.69-4.25-73.37Z"/><polygon class="cls-4" points="138.35 196.16 153.54 197.2 162.34 258.24 143.15 261.01 128.72 248.63 138.35 196.16"/><polygon class="cls-2" points="122.42 201.1 138.6 196.13 147.85 260.33 103.26 266.76 89.05 219.38 122.42 201.1"/><polygon class="cls-4" points="116.02 205.73 131.21 206.77 140.01 267.81 120.81 270.58 106.39 258.2 116.02 205.73"/><polygon class="cls-2" points="100.09 210.67 116.27 205.7 125.52 269.9 80.93 276.33 66.72 228.96 100.09 210.67"/><path class="cls-6" d="M112.33,140c-5.55-.44-12.8,2.6-19.14,8.51C63.13,176.52,10.76,235.51,4.92,248.47c-7.78,17.27,1.92,22.97,6.38,24.46,6.38,2.13,11.7-7.44,15.95-5.32s-1.06,7.44,5.32,13.82c6.38,6.38,23.92-1.38,27.65-2.13,5.32-1.06,5.32,12.76,13.82,11.7s19.14-3.19,22.33-10.63c3.19-7.44,13.31-71.83,10.63-87.2"/><path class="cls-6" d="M256.04,144.78c.91.53,31.96,10.68,47.27,27.94,15.31,17.26,27.11,23.17,25.46,32.97s.48,15.12-2.71,20.44c-3.19,5.32,4.11,11.11-1.06,23.39-6.94,16.49-4.25,18.08-17.01,22.33-14.65,4.88-69.12-9.57-72.31-13.82s20.36-113.25,20.36-113.25Z"/><path class="cls-1" d="M229.3,122.98s8.51,1.06,17.01,9.57c17.67,17.67,28.64,51.69,31.9,70.18,3.19,18.08,1.26,33.46-1.99,54.51-3.75,24.34-7.58,41.19-7.58,41.19,0,0-8.72-1.42-11.7-3.19-6.65-3.94-35.09-9.57-35.09-9.57,0,0-15.95-79.75-7.44-93.58,10.37-16.85,24.28-42.73,21.71-46.89s-6.82-22.23-6.82-22.23Z"/><rect class="cls-3" x="283.45" y="135.55" width="15.99" height="88.26" transform="translate(41.18 -53.97) rotate(11.38)"/><rect class="cls-7" x="289.78" y="135.55" width="3.34" height="88.26" transform="translate(41.18 -53.97) rotate(11.38)"/><path class="cls-6" d="M301.61,192.11s-21.68-14.89-31.05,0c-9.36,14.89,5.79,13.82,8.85,18.61,3.06,4.79-13.07,1.53-16.09,13.29-2.09,8.18,10.63,17.01,10.63,17.01,0,0-13.89,13.13-10.63,21.27,2.13,5.32,20.2,8.51,20.2,8.51"/><polygon class="cls-4" points="292.81 132.93 297.45 123.67 304.64 109.34 306.45 124.81 307.99 137.99 292.81 132.93"/><polygon class="cls-8" points="298.62 121.33 306.23 122.98 304.64 109.34 298.62 121.33"/></g></svg>