<?xml version="1.0" encoding="UTF-8"?><svg id="Layer_2" xmlns="http://www.w3.org/2000/svg" viewBox="0 0 255.82 104.67"><defs><style>.cls-1{fill:#83c362;stroke-linejoin:round;stroke-width:5px;}.cls-1,.cls-2{stroke:#000;}.cls-2{stroke-miterlimit:10;stroke-width:1.2px;}</style></defs><g id="Layer_7"><path class="cls-1" d="M45.44,5.57c12.45-2.91,46.54-1.71,50.07-1.34s56.73-2.15,64.82-1.66c20.26,1.23,35.37,1.43,55,3,25,2,36.47,21.34,37.98,51.41.4,7.88-6.05,43.64-46.13,44.61-24.21.59-80.01-.72-88.41.13s-78.76.34-81.42,0c-16.21-2.07-27.55-6.92-32.09-27.28C1.12,55.85.4,41.47,11.91,24S33.92,8.26,45.44,5.57Z"/><path class="cls-2" d="M80.21,63.4c0,.48-.17.87-.52,1.18-.35.31-.72.46-1.11.46s-.78-.13-1.15-.4c-.38-.27-.6-.69-.65-1.28,0-1.88.02-3.74.06-5.58.04-1.85.06-3.71.06-5.58,0-.53-.04-1.38-.11-2.54-.07-1.16-.1-2.37-.1-3.63,0-1.34.05-2.66.15-3.95.1-1.29.34-2.41.73-3.36l.25-.42.46-.38c.76-.28,1.54-.42,2.35-.42,1.15,0,2.38.12,3.7.36,1.32.24,2.53.65,3.65,1.24,1.12.59,2.05,1.38,2.79,2.37.74.99,1.11,2.26,1.11,3.8,0,.73-.1,1.4-.32,2.02-.21.62-.48,1.18-.8,1.68-.32.5-.69.95-1.09,1.34-.41.39-.81.71-1.2.97-.81.53-1.71.95-2.69,1.24-.98.29-2,.62-3.07.99l-.5.17-.08-.04c.67.48,1.31.97,1.91,1.49.6.52,1.22,1.03,1.85,1.53.63.5,1.29.99,1.97,1.45.69.46,1.43.89,2.25,1.28.53.5.8,1.04.8,1.6,0,.48-.16.86-.48,1.16-.32.29-.71.44-1.16.44-.34,0-.73-.1-1.18-.29-.45-.2-.91-.44-1.39-.73-.48-.29-.96-.61-1.45-.95-.49-.34-.94-.64-1.36-.92-.73-.48-1.39-.97-2-1.47-.6-.5-1.14-.99-1.62-1.47v.88c0,.92-.02,1.87-.06,2.83-.04.96-.05,1.95-.02,2.96ZM80.34,50.51l-.08.08s.04-.03.21-.08c.62-.17,1.38-.34,2.29-.53.91-.18,1.79-.45,2.62-.8.84-.35,1.56-.83,2.16-1.43s.9-1.42.9-2.46c0-.84-.16-1.5-.48-1.97-.32-.48-.74-.85-1.26-1.11-.52-.27-1.1-.46-1.74-.59-.64-.13-1.29-.26-1.93-.4-.36-.08-.77-.16-1.22-.23-.45-.07-.83-.1-1.13-.1-.11,0-.2.17-.25.52-.06.35-.09.76-.11,1.24-.01.48-.02.94-.02,1.41v1.03c0,1.04,0,2.02.02,2.94.01.92.02,1.75.02,2.48Z"/><path class="cls-2" d="M98.94,56.17l-.13-.46c.34,1.48,1.15,2.7,2.44,3.65.28.22.64.42,1.07.59.43.17.87.32,1.3.46.43.14.82.25,1.15.31.34.07.55.11.63.11.28-.25.63-.38,1.05-.38.5.06.9.26,1.18.61.28.35.42.72.42,1.11,0,.62-.29,1.11-.86,1.49-.57.38-1.18.57-1.83.57-1.37,0-2.67-.27-3.91-.82-1.23-.54-2.31-1.28-3.23-2.2s-1.67-1.99-2.25-3.19c-.57-1.2-.89-2.48-.95-3.82,0-.92.07-1.92.21-2.98.14-1.06.43-2.05.88-2.96.45-.91,1.1-1.67,1.95-2.29.85-.62,1.99-.92,3.42-.92.9,0,1.74.19,2.52.57.78.38,1.46.89,2.04,1.53.57.64,1.03,1.38,1.36,2.21.34.83.5,1.69.5,2.58,0,.81-.15,1.53-.44,2.14-.29.62-.69,1.13-1.2,1.53-.5.41-1.1.71-1.79.92-.69.21-1.41.32-2.16.32-.31,0-.65-.03-1.03-.08-.38-.06-.73-.12-1.07-.19-.34-.07-.62-.14-.86-.21-.24-.07-.38-.13-.44-.19ZM98.6,52.1c-.06.03-.08.06-.08.08h.08c.2,0,.39.05.59.15.2.1.36.21.5.34.14.13.26.24.36.34s.16.15.19.15c.42.2.88.29,1.39.29.81,0,1.5-.12,2.06-.36.56-.24.84-.82.84-1.74-.17-.56-.36-1.02-.57-1.39-.21-.36-.55-.71-1.03-1.05l-.88-.38h-.59c-.22,0-.52.06-.88.17-.36.11-.73.27-1.09.46-.11.17-.22.41-.34.73-.11.32-.21.64-.29.95-.08.31-.15.59-.19.84-.04.25-.06.39-.06.42Z"/><path class="cls-2" d="M121.91,45.68c.45.14.78.38,1.01.71.22.34.34.67.34,1.01,0,.48-.17.88-.5,1.2-.34.32-.74.48-1.22.48-.14,0-.25-.01-.34-.04-.59-.17-1.13-.3-1.64-.4-.5-.1-.99-.15-1.47-.15-.42,0-.84.04-1.26.13s-.87.2-1.34.34l-.04.04c.42.81.99,1.53,1.72,2.14.73.62,1.48,1.24,2.27,1.87.78.63,1.53,1.3,2.25,2,.71.7,1.24,1.51,1.57,2.44.14.36.21.74.21,1.13,0,.59-.11,1.2-.34,1.85-.22.64-.55,1.23-.99,1.76-.43.53-.99.97-1.66,1.32-.67.35-1.47.53-2.39.53-1.04,0-1.98-.16-2.83-.48-.85-.32-1.6-.75-2.25-1.28l-.8-.5-.38-.38c-.42-.36-.64-.81-.67-1.34v-.25c.08-.53.27-.92.57-1.16.29-.24.65-.38,1.07-.44.56,0,1.08.29,1.55.88l1.01.55c.39.22.83.45,1.32.67.49.22.97.34,1.45.34.39,0,.77-.11,1.13-.34l.25-.21c.08-.25.16-.5.23-.76.07-.25.1-.49.1-.71,0-.42-.09-.78-.27-1.07-.18-.29-.42-.56-.71-.8-.29-.24-.61-.46-.94-.67-.34-.21-.67-.44-1.01-.69-.31-.22-.74-.58-1.28-1.07-.55-.49-1.1-1.04-1.66-1.66-.56-.62-1.04-1.27-1.45-1.95-.41-.69-.61-1.32-.61-1.91,0-.7.21-1.29.63-1.78.42-.49.94-.88,1.55-1.18.62-.29,1.26-.5,1.93-.63.67-.12,1.25-.19,1.72-.19.78,0,1.49.06,2.12.17.63.11,1.31.28,2.04.5Z"/><path class="cls-2" d="M142.82,63.36c-.11,0-.21.01-.29.04-.73,0-1.39-.2-2-.59-.6-.39-1.04-.87-1.32-1.43v-.04s-.08.07-.17.21c-.64.78-1.29,1.34-1.93,1.68-.64.34-1.39.5-2.23.5-1.09,0-2.14-.15-3.15-.46s-1.89-.78-2.65-1.43c-.76-.64-1.36-1.45-1.83-2.41-.46-.97-.69-2.11-.69-3.42s.12-2.63.36-4.03c.24-1.4.41-2.69.53-3.86.14-.53.38-.92.73-1.18.35-.25.69-.38,1.03-.38.48,0,.88.16,1.2.48.32.32.48.81.48,1.45-.06.39-.13.85-.23,1.37-.1.52-.19,1.08-.27,1.68-.08.6-.16,1.22-.23,1.87-.07.64-.11,1.27-.11,1.89s.1,1.23.29,1.85c.2.62.47,1.17.82,1.66.35.49.75.89,1.2,1.2.45.31.92.46,1.43.46.34,0,.69-.03,1.05-.08.36-.06.72-.25,1.07-.57.35-.32.68-.8.99-1.45.31-.64.55-1.55.71-2.73-.03-.45-.05-.85-.06-1.22-.01-.36-.02-.7-.02-1.01l-.04-5.84c.11-.48.32-.84.61-1.09.29-.25.65-.41,1.07-.46.84,0,1.43.5,1.76,1.51,0,.31,0,.62-.02.94-.01.32-.02.64-.02.95,0,.84.03,1.66.08,2.46.06.8.08,1.6.08,2.41v.82c0,.27-.01.53-.04.78.11.67.27,1.32.48,1.93.21.62.47,1.15.78,1.6.08-.03.22-.04.42-.04.45,0,.83.17,1.16.5.32.34.48.81.48,1.43-.08.42-.17.74-.27.94-.1.21-.29.47-.57.78l-.67.34Z"/><path class="cls-2" d="M147.44,46.85c.11-.03.24-.04.38-.04s.31-.01.5-.04h.5c1.37,0,2.38.5,3.02,1.51l.17-.17c.11-.03.29-.17.55-.42l.13-.04c.78-.39,1.48-.59,2.1-.59,1.26,0,2.29.39,3.11,1.18.81.78,1.46,1.71,1.93,2.77,0,.03.03.07.08.13l.04.04c.28-.42.6-.83.97-1.24.36-.41.75-.77,1.16-1.09.41-.32.83-.58,1.26-.78.43-.2.87-.29,1.32-.29.76,0,1.44.27,2.06.82.62.54,1.14,1.25,1.58,2.12.43.87.78,1.85,1.03,2.94s.38,2.2.38,3.32-.04,2.25-.13,3.38c-.08,1.13-.13,2.29-.13,3.46-.14.67-.39,1.08-.76,1.24-.36.15-.67.23-.92.23l-.97-.34c-.11-.11-.34-.41-.67-.88v-.04s-.04-.01-.04-.04,0-.04-.02-.04c-.01,0-.02-.03-.02-.08l-.08-.29c-.08-.25-.13-.52-.13-.8,0-.22.04-.44.11-.65.07-.21.13-.38.19-.53l.13-1.05c.06-.56.1-1.13.13-1.7.03-.57.04-1.16.04-1.74,0-1.12-.13-2.18-.38-3.19s-.7-1.82-1.34-2.44c-.81.5-1.46,1.15-1.95,1.93-.49.78-.87,1.67-1.13,2.65-.27.98-.45,2.02-.54,3.13-.1,1.11-.15,2.2-.15,3.3,0,.45-.17.84-.5,1.18s-.7.5-1.09.5-.79-.13-1.2-.38c-.41-.25-.61-.7-.61-1.34s0-1.36.02-2.06c.01-.7.05-1.46.1-2.27,0-.81-.04-1.62-.1-2.44-.07-.81-.19-1.57-.36-2.27-.17-.7-.41-1.31-.71-1.83-.31-.52-.7-.89-1.18-1.11-.31,0-.59.06-.86.17-.27.11-.53.24-.78.38l-.13.08c-.31.31-.5.48-.59.5,0,.84.07,1.71.21,2.6.14.9.21,1.82.21,2.77,0,.7-.02,1.5-.06,2.41-.04.91-.15,1.78-.31,2.6-.17.83-.41,1.53-.73,2.1-.32.57-.78.86-1.37.86-.42,0-.82-.14-1.2-.42-.38-.28-.57-.74-.57-1.39,0-.17.01-.29.04-.38.53-1.85.8-3.91.8-6.17,0-2.38-.22-4.38-.67-6l-.13-.17c-.28-.03-.58-.08-.9-.17-.32-.08-.62-.2-.9-.36-.28-.15-.52-.35-.71-.59-.2-.24-.29-.54-.29-.9,0-.7.36-1.22,1.09-1.55Z"/><path class="cls-2" d="M176.71,56.17l-.13-.46c.34,1.48,1.15,2.7,2.44,3.65.28.22.64.42,1.07.59.43.17.87.32,1.3.46.43.14.82.25,1.15.31.34.07.55.11.63.11.28-.25.63-.38,1.05-.38.5.06.9.26,1.18.61.28.35.42.72.42,1.11,0,.62-.29,1.11-.86,1.49-.57.38-1.18.57-1.83.57-1.37,0-2.67-.27-3.91-.82-1.23-.54-2.31-1.28-3.23-2.2s-1.67-1.99-2.25-3.19c-.57-1.2-.89-2.48-.95-3.82,0-.92.07-1.92.21-2.98.14-1.06.43-2.05.88-2.96.45-.91,1.1-1.67,1.95-2.29.85-.62,1.99-.92,3.42-.92.9,0,1.74.19,2.52.57.78.38,1.46.89,2.04,1.53.57.64,1.03,1.38,1.36,2.21.34.83.5,1.69.5,2.58,0,.81-.15,1.53-.44,2.14-.29.62-.69,1.13-1.2,1.53-.5.41-1.1.71-1.79.92-.69.21-1.41.32-2.16.32-.31,0-.65-.03-1.03-.08-.38-.06-.73-.12-1.07-.19-.34-.07-.62-.14-.86-.21-.24-.07-.38-.13-.44-.19ZM176.37,52.1c-.06.03-.08.06-.08.08h.08c.2,0,.39.05.59.15.2.1.36.21.5.34.14.13.26.24.36.34s.16.15.19.15c.42.2.88.29,1.39.29.81,0,1.5-.12,2.06-.36.56-.24.84-.82.84-1.74-.17-.56-.36-1.02-.57-1.39-.21-.36-.55-.71-1.03-1.05l-.88-.38h-.59c-.22,0-.52.06-.88.17-.36.11-.73.27-1.09.46-.11.17-.22.41-.34.73-.11.32-.21.64-.29.95-.08.31-.15.59-.19.84-.04.25-.06.39-.06.42Z"/></g></svg>