<?xml version="1.0" encoding="UTF-8"?><svg id="Layer_2" xmlns="http://www.w3.org/2000/svg" viewBox="0 0 563.7 106.07"><defs><style>.cls-1{fill:#43a0d0;stroke-linecap:round;stroke-linejoin:round;}.cls-1,.cls-2{stroke:#000;stroke-width:5px;}.cls-2{fill:#fff;stroke-miterlimit:10;}</style></defs><g id="Layer_7"><path class="cls-1" d="M2.5,53.44c0-16.12,3.49-30.28,18.25-38.14S56.33,1.67,84.92,3.06s76.48-1.38,85.53,0,89.97-.18,103.01-.4,59.32.59,71.18.68,67.69,2.08,79.27,2.09,70.99-3.63,86.79-2.81,35.15,11.44,41.47,21.63,12.07,26.2,7.2,40.19-6.34,28.19-27.1,33.09-103.42,4.42-114.59,4.66-126.47-2.79-142.32-.28-78.46.52-101.16.52h-81.07c-23.63,0-56.18,5.74-69.4-8.63S2.5,70.44,2.5,53.44Z"/><path class="cls-2" d="M130.95,32.67c7.65-10.96,23.37-12.05,46.64-12.05,23.27,0,89.98,0,95.94,0,5.96,0,51.51-.06,74.77,0,19.96.05,45.56-.89,56.79,1.1,18.57,3.29,28.4,13.15,28.4,25.21s1.09,25.21-17.48,33.97c-10.64,5.03-57.55,2.19-74.1,2.19s-88.38,2.8-104.89,1.95c-16.51-.85-66.36.24-79.86.24-14.96,0-25.12-5.48-28.4-14.25s-5.46-27.4,2.18-38.36Z"/></g></svg>