<?xml version="1.0" encoding="UTF-8"?><svg id="Layer_2" xmlns="http://www.w3.org/2000/svg" viewBox="0 0 60.96 71.35"><defs><style>.cls-1,.cls-2{stroke:#000;stroke-linecap:round;stroke-linejoin:round;stroke-width:3px;}.cls-3{stroke-width:0px;}.cls-2{fill:#fff;}</style></defs><g id="Layer_6"><path class="cls-1" d="M56.33,10.03l3.13,3.27-3.13,17.97-.8,14.41s-.48,8.32-.01,11.03c.5,2.88,2.43,11.29,2.43,11.29l-2.24.92-4.79-17.98,1.36-37.65,4.04-3.27Z"/><polygon class="cls-2" points="30.12 3.91 28.18 15.29 35.46 15.5 37.46 4.5 30.12 3.91"/><path class="cls-2" d="M4.93,9.86s-1.68,22.22-2.29,25.36-1.37,17.38-1.07,21.46.54,11.31,1.34,12.78,13.51-1.7,18.06-1.12,18.24.05,20.33,0,13.42.58,13.42.58c0,0-1.76-12.38-1.76-16.92s1.11-28.17,1.26-32.4,1.11-9.57,1.11-9.57c0,0-7.98-.14-11.34.33s-11.98-1.88-19.34-1.57c-2.71.12-7.73-.3-10.87.3-4.73.92-8.59.74-8.85.76Z"/><path class="cls-2" d="M11.77,22.5s2.92.36,7.04.32c3.56-.04,9.39-.3,13.17-.32,2-.01,13.6,1.45,13.6,1.45,0,0-1.5,14.89-1.02,16.17s0,12.07,0,12.07l1.02,7.85-18.18-.49s-2.61.02-6.51,0c-3.9-.02-10.49.85-10.49.85,0,0-.79-6.04-.79-8.33,0-1.21.13-5.88.13-7.85,0-2.54.51-10.14.51-10.14l1.52-11.59Z"/><polygon class="cls-2" points="23.46 1.5 24.21 15.5 32.55 15.5 31.27 1.5 23.46 1.5"/><path class="cls-3" d="M15.9,33.71c1.38.26,2.58-.02,3.76-.75.85-.52,2.12-1.85,3.2-1.68.78.12,1.43,1.24,1.97,1.73.93.84,2.06,1.49,3.34,1.53,1.13.03,2.13-.44,3.15-.88s1.96-.84,2.82,0,1.79,1.64,3.1,1.3,2.14-1.52,2.77-2.62c.72-1.26-1.23-2.4-1.94-1.14-.28.49-.62,1.2-1.15,1.47s-.76-.16-1.1-.5c-.79-.78-1.59-1.27-2.74-1.27-1.92,0-3.87,2.03-5.74,1.16-1.71-.8-2.43-3.02-4.55-3.04-1.09,0-2.12.55-3.01,1.13-.99.66-2.02,1.63-3.3,1.39-1.42-.27-2.02,1.9-.6,2.17h0Z"/><path class="cls-3" d="M16.07,42.88c1.03-2.43,3.2-1.9,5.24-1.14s4.13,2.02,6.29,1.86c1.04-.08,1.89-.6,2.67-1.26.52-.44,1.11-1.23,1.84-1.29.56-.05,1.12.38,1.6.6.57.26,1.15.53,1.77.65,1.48.3,2.71-.3,3.77-1.31s-.54-2.59-1.59-1.59c-1.39,1.33-2.56.34-4.04-.28-1.01-.42-2.07-.43-3.05.1-.84.45-1.41,1.23-2.19,1.75-.88.59-1.75.34-2.69.05-2.22-.7-4.29-1.93-6.63-2.18-2.54-.27-4.22,1.2-5.16,3.44-.56,1.33,1.61,1.91,2.17.6h0Z"/><path class="cls-3" d="M15.65,51.34c1.22-.4,2.38-.59,3.63-.19,1,.32,1.87.97,2.9,1.21.94.22,1.85.1,2.71-.33.92-.46,1.57-.89,2.65-.62,1.69.42,3.03,1.31,4.85,1.01,2.17-.36,4.06-1,6.26-.33,1.39.42,1.98-1.75.6-2.17-2.21-.66-4.35-.37-6.56.14-.9.21-1.59.25-2.49-.06s-1.74-.74-2.69-.88-1.82-.02-2.66.37c-.42.19-.82.53-1.26.67-.61.18-1.19-.06-1.74-.31-2.33-1.08-4.3-1.51-6.81-.68-1.37.45-.78,2.63.6,2.17h0Z"/></g></svg>