<?xml version="1.0" encoding="UTF-8"?><svg id="Layer_2" xmlns="http://www.w3.org/2000/svg" viewBox="0 0 391.85 474.61"><defs><style>.cls-1{fill:#fff;}.cls-1,.cls-2{stroke:#000;stroke-miterlimit:10;stroke-width:4px;}.cls-2{fill:#f1b14d;}</style></defs><g id="Layer_6"><path class="cls-1" d="M208.25,78.85l-21.08-2.95c-3.75-.52-6.37-3.99-5.84-7.74l6.94-53.73c.52-3.75,3.51-6.05,7.26-5.53h10c4.47,0,9-1,12.56-.37,3.75.52,6.37,3.99,5.84,7.74l-2.18,15.59-5.75,41.14c-.52,3.75-3.99,6.37-7.74,5.84Z"/><path class="cls-2" d="M354.38,472.23s-66.39.85-88.49,0c-25.88-1-43.88-1-68.56,0-16.57.67-48.75-.41-65.32-1-13.18-.47-34,0-53,0-21.14,0-39.38,1-39.38,1-19.12,0-34.42-15.5-34.62-34.62-.37-34.24.82-80.14,1-102.38.16-20.13-1-80.5-1-80.5,0,0-2.98-68.87-3-92.5,0-10.3,1.3-30.23,2-49,.8-21.51,1-41.38,1-41.38,0-19.12,15.5-34.62,34.62-34.62,0,0,44.74,1,59.38,1,22.32,0,64.88-1.83,87-2,23.59-.18,66.02,2.12,94,1,25-1,74.38,0,74.38,0,19.12,0,34.62,15.5,34.62,34.62,0,0,1.91,46.42,0,75.84-1.67,25.62-2.04,77.67,0,109.45,1.67,25.95,0,73.09,0,73.09,0,0,1,38,0,55.1-.76,13.05,0,52.27,0,52.27,0,19.12-15.5,34.62-34.62,34.62Z"/><path class="cls-1" d="M67.97,108.19s53.61-.66,71.46,0c20.9.77,35.44.77,55.36,0,13.38-.52,39.37.31,52.75.77,10.64.36,27.46,0,42.8,0,17.07,0,31.8-.77,31.8-.77,15.44,0,27.79,11.94,27.96,26.66.3,26.36-.66,61.7-.81,78.82-.13,15.5.81,61.98.81,61.98,0,0,2.41,53.03,2.42,71.22,0,7.93-1.05,23.27-1.62,37.73-.65,16.56-.81,31.86-.81,31.86,0,14.72-12.52,26.66-27.96,26.66,0,0-36.13-.77-47.95-.77-18.03,0-52.39,1.41-70.26,1.54-19.05.14-53.32-1.63-75.91-.77-20.19.77-60.06,0-60.06,0-15.44,0-27.96-11.94-27.96-26.66,0,0-1.55-35.74,0-58.39,1.35-19.72,1.65-59.8,0-84.27-1.35-19.98,0-56.28,0-56.28,0,0-.81-29.26,0-42.43.62-10.04,0-40.25,0-40.25,0-14.72,12.52-26.66,27.96-26.66Z"/><path class="cls-1" d="M200.05,72.7s-5.53.2-11.05,1.07c-2.51.4-10.14.99-10.14.99-3.77.37-7.12-2.39-7.49-6.16,0,0-.47-5.62-.85-8.7-1-8-3-23.4-3-30,0-5-1.69-18.31-1.69-18.31-.37-3.77,2.39-7.12,6.16-7.49,0,0,3.53-1.2,11.45-1.11,2.45.03,9.73-.95,9.73-.95,3.77-.37,7.12,2.39,7.49,6.16,0,0,.85,17.7,2.94,30.2,1.11,6.64,2.61,26.81,2.61,26.81.37,3.77-2.39,7.12-6.16,7.49Z"/></g></svg>