<?xml version="1.0" encoding="UTF-8"?><svg id="Layer_2" xmlns="http://www.w3.org/2000/svg" viewBox="0 0 60.96 72.35"><defs><style>.cls-1{fill:#4ec35f;}.cls-1,.cls-2,.cls-3{stroke:#000;stroke-linecap:round;stroke-linejoin:round;stroke-width:4px;}.cls-2{fill:#ddd9b6;}.cls-3{fill:#fff;}.cls-4{stroke-width:0px;}</style></defs><g id="Layer_6"><path class="cls-1" d="M56.83,10.53l2.13,3.47-2.13,17.77-.8,14.41s-.48,8.32-.01,11.03c.5,2.88,2.43,11.29,2.43,11.29l-2.24.92-4.79-17.98,1.36-37.65,4.04-3.27Z"/><polygon class="cls-3" points="30.62 3 28.68 15.77 35.96 16 37.96 3.66 30.62 3"/><path class="cls-3" d="M5.43,10.36s-1.68,22.22-2.29,25.36-1.37,17.38-1.07,21.46.54,11.31,1.34,12.78,13.51-1.7,18.06-1.12,18.24.05,20.33,0,13.42.58,13.42.58c0,0-1.76-12.38-1.76-16.92s1.11-28.17,1.26-32.4,1.11-9.57,1.11-9.57c0,0-7.98-.14-11.34.33s-11.98-1.88-19.34-1.57c-2.71.12-7.73-.3-10.87.3-4.73.92-8.59.74-8.85.76Z"/><path class="cls-2" d="M12.27,23s2.92.36,7.04.32c3.56-.04,9.39-.3,13.17-.32,2-.01,13.6,1.45,13.6,1.45,0,0-1.5,14.89-1.02,16.17s0,12.07,0,12.07l1.02,7.85-18.18-.49s-2.61.02-6.51,0c-3.9-.02-10.49.85-10.49.85,0,0-.79-6.04-.79-8.33,0-1.21.13-5.88.13-7.85,0-2.54.51-10.14.51-10.14l1.52-11.59Z"/><polygon class="cls-3" points="23.96 2 24.71 16 33.05 16 31.77 2 23.96 2"/><path class="cls-4" d="M16.3,34.57c1.48.28,2.78,0,4.05-.79.73-.45,2.04-1.8,2.96-1.64.64.11,1.29,1.21,1.76,1.63,1,.9,2.23,1.61,3.61,1.64,1.21.03,2.26-.46,3.34-.93.82-.36,1.65-.75,2.36-.05.97.95,2.01,1.78,3.47,1.39s2.31-1.6,2.99-2.8c.96-1.68-1.63-3.19-2.59-1.51-.27.47-.55,1.03-1.01,1.34-.24.16-.02.11-.17.03-.18-.1-.33-.33-.48-.47-.86-.85-1.76-1.37-3-1.38-1.1,0-2.1.43-3.09.87-.8.36-1.6.73-2.46.34-1.81-.82-2.47-3.07-4.74-3.09-1.16,0-2.26.56-3.19,1.18-.87.58-1.88,1.57-3.01,1.35-1.89-.36-2.7,2.54-.8,2.89h0Z"/><path class="cls-4" d="M16.93,43.48c.93-2.2,2.97-1.55,4.78-.88,2,.74,4.18,2.02,6.39,1.87,1.15-.08,2.08-.65,2.94-1.37.43-.36.98-1.1,1.58-1.18.47-.06,1.01.36,1.42.55.6.28,1.21.56,1.85.69,1.62.33,2.98-.3,4.13-1.4,1.4-1.34-.72-3.46-2.12-2.12-1.21,1.16-2.28.22-3.59-.33-1.13-.48-2.33-.51-3.43.1-.83.46-1.42,1.22-2.19,1.75s-1.56.28-2.4,0c-2.25-.71-4.34-1.95-6.73-2.2-2.72-.28-4.52,1.33-5.53,3.72-.32.75.34,1.64,1.05,1.85.86.25,1.53-.31,1.85-1.05h0Z"/><path class="cls-4" d="M16.25,52.2c1.16-.38,2.24-.57,3.43-.19,1,.32,1.87.97,2.9,1.21s2.05.1,3-.37c.84-.42,1.38-.82,2.36-.58,1.77.44,3.14,1.33,5.05,1.01,2.1-.36,3.93-.98,6.06-.33,1.85.56,2.65-2.34.8-2.89-2.28-.68-4.48-.38-6.75.14-.85.2-1.45.23-2.29-.06-.9-.31-1.74-.73-2.69-.88-1.02-.16-2.02-.03-2.95.41-1.02.48-1.5.88-2.62.36-2.42-1.12-4.49-1.58-7.1-.72-1.82.6-1.04,3.5.8,2.89h0Z"/></g></svg>