<?xml version="1.0" encoding="UTF-8"?><svg id="Layer_2" xmlns="http://www.w3.org/2000/svg" viewBox="0 0 377.93 447.08"><defs><style>.cls-1,.cls-2,.cls-3,.cls-4,.cls-5{stroke:#000;stroke-width:4px;}.cls-1,.cls-2,.cls-4{stroke-miterlimit:10;}.cls-1,.cls-5{fill:#fff;}.cls-2{fill:#f5b54d;}.cls-3,.cls-5{stroke-linejoin:round;}</style></defs><g id="Layer_6"><path class="cls-4" d="M354.75,53.1l20.48,21.4-20.48,117.76-5.22,94.44s-3.15,54.49-.08,72.3c3.26,18.9,25.78,72.27,25.78,72.27l-24.48,7.73-31.39-117.81,8.94-246.69,26.45-21.4Z"/><polygon class="cls-5" points="177.96 9.98 166.96 74.5 196.38 74.5 209.03 9.98 177.96 9.98"/><polygon class="cls-3" points="205.46 73.83 219.46 17.96 209.46 9.98 196.38 74.5 205.46 73.83"/><path class="cls-2" d="M24.46,52s-11,145.62-15,166.15S.46,332.07,2.46,358.75s3.54,74.12,8.77,83.76,88.5-11.12,118.36-7.32,119.54.31,133.2,0,87.96,3.81,87.96,3.81c0,0-19.3-76.99-19.3-106.75s15-188.73,16-216.44,7.3-62.72,7.3-62.72c0,0-52.3-.91-74.3,2.17s-78.52-12.31-126.76-10.26c-17.75.76-50.64-1.99-71.24,2-31,6-56.32,4.85-58,5Z"/><path class="cls-1" d="M48.46,102s23,3,55.4,2.66c28.03-.29,73.87-2.45,103.6-2.66,15.7-.11,107,12,107,12,0,0-11.8,123.36-8,134,3.8,10.64,0,100,0,100l8,65-143.04-4.06s-20.52.14-51.2,0-82.55,7.06-82.55,7.06c0,0-6.22-50-6.22-69,0-10.05,1.01-48.75,1-65-.02-21.02,4-84,4-84l12-96Z"/><polygon class="cls-5" points="151.46 2 156.96 62.53 186.38 62.53 176.03 2 151.46 2"/><polygon class="cls-3" points="195.46 61.86 186.46 9.98 176.46 2 186.38 62.53 195.46 61.86"/></g></svg>