<?xml version="1.0" encoding="UTF-8"?><svg id="Layer_2" xmlns="http://www.w3.org/2000/svg" viewBox="0 0 255.82 104.67"><defs><style>.cls-1{fill:#83c362;stroke-linejoin:round;stroke-width:5px;}.cls-1,.cls-2{stroke:#000;}.cls-2{stroke-miterlimit:10;stroke-width:1.2px;}</style></defs><g id="Layer_7"><path class="cls-1" d="M45.44,5.57c12.45-2.91,46.54-1.71,50.07-1.34s56.73-2.15,64.82-1.66c20.26,1.23,35.37,1.43,55,3,25,2,36.47,21.34,37.98,51.41.4,7.88-6.05,43.64-46.13,44.61-24.21.59-80.01-.72-88.41.13s-78.76.34-81.42,0c-16.21-2.07-27.55-6.92-32.09-27.28C1.12,55.85.4,41.47,11.91,24S33.92,8.26,45.44,5.57Z"/><path class="cls-2" d="M39.37,43.78c-.08,3-.13,6.09-.13,9.28v9.83c0,.5-.17.91-.53,1.22-.35.31-.72.46-1.11.46s-.78-.13-1.16-.4c-.38-.27-.59-.72-.65-1.37v-9.66c0-3.11.04-6.12.13-9.03-1.34.14-2.55.26-3.61.36-1.06.1-2,.2-2.81.32-.56-.06-.99-.25-1.28-.59-.29-.34-.44-.74-.44-1.22,0-.53.25-.94.76-1.22.5-.28,1.18-.5,2.02-.65.84-.15,1.81-.26,2.92-.31,1.11-.06,2.27-.14,3.51-.25,1.71-.14,3.22-.25,4.54-.34,1.32-.08,2.45-.13,3.4-.13,1.01.36,1.51.92,1.51,1.68-.08.59-.33,1.01-.74,1.26-.41.25-.92.42-1.55.5-.63.08-1.35.13-2.16.13s-1.68.04-2.6.13Z"/><path class="cls-2" d="M52.51,48.44c-.39-.45-.59-.88-.59-1.3,0-.48.15-.88.44-1.22.29-.34.68-.5,1.15-.5.36,0,.73.11,1.09.31.36.21.7.46,1.01.76.31.29.57.58.8.86.22.28.36.48.42.59.06-.03.18-.04.38-.04.53,0,1.04.13,1.53.4.49.27.94.61,1.34,1.03.41.42.76.87,1.07,1.34.31.48.57.92.8,1.34.22.42.43.88.61,1.36.18.49.33.99.44,1.49.11.5.2.99.25,1.47.06.48.08.91.08,1.3,0,1.15-.15,2.22-.44,3.21-.29.99-.77,1.87-1.43,2.62-.66.76-1.52,1.35-2.58,1.79-1.06.43-2.37.65-3.91.65-1.12,0-2.04-.34-2.75-1.01-.71-.67-1.27-1.46-1.66-2.37-.39-.91-.67-1.84-.82-2.79-.15-.95-.23-1.72-.23-2.31s.07-1.11.21-1.64c.14-.53.32-1.03.55-1.49.22-.46.46-.87.69-1.24.24-.36.47-.67.69-.92l2.1-2.48c-.03-.11-.12-.25-.27-.4s-.3-.3-.44-.44l-.55-.38ZM56.76,51.12l-.17.25c-.34.42-.71.85-1.11,1.3-.41.45-.79.91-1.16,1.39-.36.48-.67.99-.92,1.55-.25.56-.38,1.18-.38,1.85,0,.62.05,1.22.15,1.83.1.6.24,1.14.42,1.62.18.48.41.86.69,1.16.28.29.6.44.97.44.31,0,.62-.03.94-.08.32-.06.61-.11.86-.17l1.51-.76c.08-.11.22-.26.42-.44.2-.18.35-.37.46-.57.25-.92.38-1.83.38-2.73,0-1.18-.2-2.3-.59-3.38-.39-1.08-.99-2.06-1.81-2.96l-.5-.25h-.04c-.06,0-.1-.01-.13-.04Z"/><path class="cls-2" d="M69.69,46.46c-.34-.14-.61-.36-.82-.65-.21-.29-.31-.59-.31-.9,0-.42.15-.83.44-1.22.29-.39.76-.59,1.41-.59.81.14,1.53.38,2.14.71.62.34,1.25.55,1.89.63.5.14.87.38,1.09.74.22.35.34.69.34,1.03,0,.39-.15.77-.44,1.13-.29.36-.68.55-1.15.55-.42,0-.82-.06-1.2-.17-.38-.11-.75-.25-1.11-.42-.36-.17-.73-.33-1.09-.48-.36-.15-.76-.27-1.18-.36ZM71.5,52.59c.14-.64.39-1.07.76-1.28.36-.21.78-.32,1.26-.32.39.06.73.27,1.01.63.28.36.42.81.42,1.34-.06,1.09-.11,2.06-.17,2.92-.06.85-.1,1.69-.13,2.5-.03.81-.05,1.66-.06,2.54-.01.88-.02,1.9-.02,3.04,0,.48-.18.88-.55,1.2-.36.32-.74.48-1.13.48s-.77-.14-1.13-.42c-.36-.28-.57-.71-.63-1.3,0-2.21.04-4.1.13-5.67l.25-5.67Z"/><path class="cls-2" d="M83.92,40.58c.14-.48.36-.85.65-1.13.29-.28.64-.42,1.03-.42.84,0,1.43.5,1.76,1.51,0,2.1-.01,4.08-.04,5.94-.03,1.86-.04,3.62-.04,5.27,0,2.8.17,5.84.5,9.11.25.08.57.17.95.27.38.1.74.24,1.09.42.35.18.64.41.88.69.24.28.36.63.36,1.05s-.16.79-.48,1.11c-.32.32-.71.48-1.16.48-.31,0-.64-.08-1.01-.25-.98-.48-1.73-.8-2.25-.99-.52-.18-.91-.39-1.18-.63-.27-.24-.44-.62-.52-1.13-.08-.52-.17-1.35-.25-2.5-.2-1.04-.29-2.17-.29-3.4v-15.41Z"/><path class="cls-2" d="M97.99,56.96l-.13-.46c.34,1.48,1.15,2.7,2.44,3.65.28.22.64.42,1.07.59.43.17.87.32,1.3.46.43.14.82.25,1.15.31.34.07.55.11.63.11.28-.25.63-.38,1.05-.38.5.06.9.26,1.18.61.28.35.42.72.42,1.11,0,.62-.29,1.11-.86,1.49-.57.38-1.18.57-1.83.57-1.37,0-2.67-.27-3.91-.82-1.23-.54-2.31-1.28-3.23-2.2s-1.67-1.99-2.25-3.19c-.57-1.2-.89-2.48-.95-3.82,0-.92.07-1.92.21-2.98.14-1.06.43-2.05.88-2.96.45-.91,1.1-1.67,1.95-2.29.85-.62,1.99-.92,3.42-.92.9,0,1.74.19,2.52.57.78.38,1.46.89,2.04,1.53.57.64,1.03,1.38,1.36,2.21.34.83.5,1.69.5,2.58,0,.81-.15,1.53-.44,2.14-.29.62-.69,1.13-1.2,1.53-.5.41-1.1.71-1.79.92-.69.21-1.41.32-2.16.32-.31,0-.65-.03-1.03-.08-.38-.06-.73-.12-1.07-.19-.34-.07-.62-.14-.86-.21-.24-.07-.38-.13-.44-.19ZM97.66,52.89c-.06.03-.08.06-.08.08h.08c.2,0,.39.05.59.15.2.1.36.21.5.34.14.13.26.24.36.34s.16.15.19.15c.42.2.88.29,1.39.29.81,0,1.5-.12,2.06-.36.56-.24.84-.82.84-1.74-.17-.56-.36-1.02-.57-1.39-.21-.36-.55-.71-1.03-1.05l-.88-.38h-.59c-.22,0-.52.06-.88.17-.36.11-.73.27-1.09.46-.11.17-.22.41-.34.73-.11.32-.21.64-.29.95-.08.31-.15.59-.19.84-.04.25-.06.39-.06.42Z"/><path class="cls-2" d="M122.81,60.24c.36-.42.68-.69.95-.82.27-.12.55-.19.86-.19.48,0,.83.2,1.07.59.24.39.36.84.36,1.34-.14.53-.37.98-.69,1.34-.32.36-.71.66-1.16.88-.45.22-.94.38-1.47.48-.53.1-1.06.15-1.6.15-.56-.03-1.11-.11-1.66-.25-.55-.14-1.06-.33-1.53-.57-.48-.24-.89-.52-1.24-.84-.35-.32-.6-.69-.74-1.11-.64-1.6-1.08-3.24-1.3-4.93-.22-1.69-.34-3.34-.34-4.93v-1.05l-2.6.38c-.56-.06-.99-.25-1.28-.59-.29-.34-.44-.74-.44-1.22,0-.31.11-.62.34-.94.22-.32.56-.55,1.01-.69l3.07-.38c0-.98.04-1.95.11-2.92.07-.96.12-1.94.15-2.92.31-.98.87-1.53,1.68-1.64.81,0,1.4.52,1.76,1.55-.06,1.12-.14,2.52-.25,4.2l-.08,1.18c.73-.11,1.48-.2,2.27-.25.78-.06,1.61-.08,2.48-.08,1.01.36,1.51.92,1.51,1.68-.06.39-.21.75-.46,1.07-.25.32-.63.54-1.13.65-1.65,0-3.23.13-4.75.38v1.09c0,.9.03,1.79.08,2.67.06.88.13,1.72.23,2.52.1.8.23,1.53.4,2.18.17.66.36,1.2.59,1.62.36.17.78.33,1.26.48.48.15.94.23,1.39.23.25,0,.59-.07,1.01-.21l.17-.13Z"/><path class="cls-2" d="M142.38,40.84l.13-.21c.11-.22.34-.42.69-.59.35-.17.76-.31,1.24-.42.48-.11.98-.2,1.51-.25.53-.06,1.05-.08,1.55-.08.9,0,1.66.17,2.29.53.63.35,1.14.78,1.53,1.3.39.52.68,1.08.86,1.68.18.6.27,1.16.27,1.66-.03.64-.11,1.27-.25,1.89-.14.62-.36,1.2-.67,1.76l-.46.84c1.23,0,2.24.12,3.02.36.78.24,1.4.59,1.85,1.05.45.46.76,1.04.92,1.72.17.69.25,1.48.25,2.37,0,1.09-.1,2.06-.29,2.9-.2.84-.47,1.58-.82,2.23-.35.64-.78,1.22-1.3,1.72-.52.5-1.1.98-1.74,1.43-.78.62-1.67,1.03-2.65,1.24-.98.21-1.93.38-2.86.53-.59-.06-.99-.2-1.22-.42l-.08-.17c-.31.22-.63.35-.97.38-.42,0-.82-.1-1.2-.32-.38-.21-.59-.64-.65-1.28l-.13-3.19-.13-1.34c-.25-1.62-.49-3.12-.71-4.49-.22-1.37-.43-2.68-.61-3.93-.18-1.25-.35-2.46-.5-3.65-.15-1.19-.29-2.44-.4-3.76.11-.5.32-.86.61-1.07.29-.21.59-.34.9-.4ZM145.23,49.95v.04c.06,0,.27-.09.63-.27.36-.18.66-.3.88-.36l.13-.13c.56-.64,1.05-1.41,1.47-2.29.42-.88.63-1.71.63-2.5,0-.53-.12-.99-.36-1.39-.24-.39-.71-.59-1.41-.59-.45,0-.94.07-1.47.21-.53.14-.99.24-1.39.29.03.56.08,1.15.15,1.79.07.63.15,1.25.23,1.87.08.62.17,1.21.25,1.78.08.57.17,1.09.25,1.53ZM148.59,52.13c-.2.39-.57.73-1.11,1.03-.55.29-1.04.44-1.49.44h-.17l.55,3.82c.2,1.48.32,2.79.38,3.91v.04h.04c.06,0,.13-.01.21-.04,4.45-.67,6.68-2.74,6.68-6.21,0-.42-.04-.87-.11-1.34-.07-.48-.17-.97-.31-1.47l-.04-.04c-.22-.08-.56-.17-1.01-.27-.45-.1-.95-.15-1.51-.15-.64,0-1.34.1-2.1.29Z"/><path class="cls-2" d="M161.78,62.76c0-.76.02-1.54.06-2.35.04-.81.13-1.58.27-2.31l.29-3.11.38-2.27c.08-.36.13-.7.13-1.01,0-.34-.06-.69-.19-1.05-.12-.36-.46-.55-.99-.55-.22,0-.44-.06-.65-.19-.21-.12-.4-.28-.57-.46-.17-.18-.3-.37-.4-.57-.1-.2-.15-.38-.15-.55,0-.34.17-.7.5-1.09.34-.39.8-.59,1.39-.59,1.46.14,2.52.55,3.19,1.22s1.01,1.5,1.01,2.48c.84-.59,1.82-1.03,2.94-1.32,1.12-.29,2.45-.5,3.99-.61.62,0,1.09.16,1.43.48.34.32.5.72.5,1.2,0,.42-.14.79-.42,1.11-.28.32-.66.52-1.13.61-1.29.08-2.38.22-3.28.42-.9.2-1.65.51-2.27.94-.62.43-1.09,1.02-1.43,1.74-.34.73-.59,1.67-.76,2.81l-.13.63v1.72c-.03.42-.05.85-.06,1.28-.01.43-.05.88-.11,1.32l-.13.76-.25.67c-.45.53-.97.8-1.55.8-1.01,0-1.55-.59-1.64-1.76v-.42Z"/><path class="cls-2" d="M181.43,56.96l-.13-.46c.34,1.48,1.15,2.7,2.44,3.65.28.22.64.42,1.07.59.43.17.87.32,1.3.46.43.14.82.25,1.15.31.34.07.55.11.63.11.28-.25.63-.38,1.05-.38.5.06.9.26,1.18.61.28.35.42.72.42,1.11,0,.62-.29,1.11-.86,1.49-.57.38-1.18.57-1.83.57-1.37,0-2.67-.27-3.91-.82-1.23-.54-2.31-1.28-3.23-2.2s-1.67-1.99-2.25-3.19c-.57-1.2-.89-2.48-.95-3.82,0-.92.07-1.92.21-2.98.14-1.06.43-2.05.88-2.96.45-.91,1.1-1.67,1.95-2.29.85-.62,1.99-.92,3.42-.92.9,0,1.74.19,2.52.57.78.38,1.46.89,2.04,1.53.57.64,1.03,1.38,1.36,2.21.34.83.5,1.69.5,2.58,0,.81-.15,1.53-.44,2.14-.29.62-.69,1.13-1.2,1.53-.5.41-1.1.71-1.79.92-.69.21-1.41.32-2.16.32-.31,0-.65-.03-1.03-.08-.38-.06-.73-.12-1.07-.19-.34-.07-.62-.14-.86-.21-.24-.07-.38-.13-.44-.19ZM181.09,52.89c-.06.03-.08.06-.08.08h.08c.2,0,.39.05.59.15.2.1.36.21.5.34.14.13.26.24.36.34s.16.15.19.15c.42.2.88.29,1.39.29.81,0,1.5-.12,2.06-.36.56-.24.84-.82.84-1.74-.17-.56-.36-1.02-.57-1.39-.21-.36-.55-.71-1.03-1.05l-.88-.38h-.59c-.22,0-.52.06-.88.17-.36.11-.73.27-1.09.46-.11.17-.22.41-.34.73-.11.32-.21.64-.29.95-.08.31-.15.59-.19.84-.04.25-.06.39-.06.42Z"/><path class="cls-2" d="M205.7,63.18l-.97.92c-.36.34-.95.58-1.74.74-.8.15-1.63.23-2.5.23-1.18,0-2.18-.13-3-.38-.83-.25-1.55-.74-2.16-1.47-1.01-1.34-1.51-2.6-1.51-3.78,0-.78.16-1.56.48-2.33.32-.77.78-1.46,1.37-2.08.59-.62,1.31-1.12,2.16-1.51.85-.39,1.81-.59,2.88-.59.45.06.88.15,1.3.29.42.14.81.29,1.18.46.36.17.69.33.99.48.29.15.52.27.69.36l-.25-1.13c-.14-.45-.31-.89-.5-1.32-.2-.43-.43-.86-.71-1.28l-.84-.76c-.22-.06-.43-.13-.63-.23-.2-.1-.45-.15-.76-.15-.81.06-1.61.16-2.39.32-.78.15-1.57.37-2.35.65-.08.03-.21.04-.38.04-.59,0-1.04-.17-1.36-.5-.32-.34-.48-.7-.48-1.09,0-.34.08-.64.25-.9.17-.27.49-.54.97-.82.73-.22,1.53-.47,2.41-.73.88-.27,1.77-.4,2.67-.4,1.54,0,2.82.31,3.84.92,1.02.62,1.83,1.42,2.44,2.42.6.99,1.02,2.09,1.26,3.3.24,1.2.36,2.39.36,3.57,0,.7-.02,1.45-.06,2.25-.04.8-.14,1.54-.29,2.23-.15.69-.37,1.25-.65,1.7-.28.45-.66.67-1.13.67-.11,0-.22,0-.34-.02-.11-.01-.18-.04-.21-.06ZM205.07,58.1l-.29-.04c-.42-.08-.8-.22-1.16-.42-.35-.2-.69-.39-1.03-.59-.34-.2-.66-.37-.97-.52-.31-.15-.62-.23-.92-.23-.98.11-1.83.45-2.54,1.01-.71.56-1.07,1.23-1.07,2.02,0,.22.06.46.17.71.11.25.29.57.55.97.73.45,1.53.67,2.39.67,1.01,0,1.89-.1,2.65-.29l.55-.55c.28-.36.66-.55,1.13-.55h.21c.03-.22.06-.45.08-.67.03-.22.07-.45.13-.67l.13-.84Z"/><path class="cls-2" d="M224.6,50.08c.56,0,1.04.13,1.43.4.39.27.59.67.59,1.2,0,.31-.08.62-.23.92-.15.31-.43.59-.82.84-.78.22-1.6.48-2.44.78-.84.29-1.66.62-2.46.99-.8.36-1.55.76-2.27,1.2-.71.43-1.32.88-1.83,1.32.14,0,.46.1.97.32.5.21.98.41,1.43.61,1.18.53,2.33,1.05,3.46,1.55,1.13.5,2.37.8,3.72.88,1.01.34,1.51.92,1.51,1.76-.14.84-.66,1.4-1.55,1.68-.84-.08-1.62-.2-2.33-.36-.71-.15-1.44-.35-2.18-.59-.74-.24-1.53-.53-2.37-.88-.84-.35-1.81-.78-2.9-1.28l-.5-.21v2.52c0,.42-.17.78-.5,1.07-.34.29-.7.44-1.09.44-.42,0-.83-.13-1.22-.38-.39-.25-.59-.69-.59-1.3,0-4-.06-7.95-.17-11.84-.11-3.89-.17-7.87-.17-11.93.11-.48.32-.84.61-1.09.29-.25.65-.41,1.07-.46.84,0,1.41.5,1.72,1.51,0,2.02.01,4,.04,5.96.03,1.96.07,3.92.13,5.88l.08,2.73c1.18-.87,2.5-1.68,3.99-2.44,1.48-.76,3.11-1.36,4.87-1.81Z"/></g></svg>