<?xml version="1.0" encoding="UTF-8"?><svg id="Layer_2" xmlns="http://www.w3.org/2000/svg" viewBox="0 0 254.82 103.67"><defs><style>.cls-1{font-family:SingleDay-Regular, 'Single Day';font-size:43px;}.cls-2{fill:#84c462;stroke:#000;stroke-linejoin:round;stroke-width:4px;}</style></defs><g id="Layer_7"><path class="cls-2" d="M44.94,5.07c12.45-2.91,46.54-1.71,50.07-1.34s56.73-2.15,64.82-1.66c20.26,1.23,35.37,1.43,55,3,25,2,36.47,21.34,37.98,51.41.4,7.88-6.05,43.64-46.13,44.61-24.21.59-80.01-.72-88.41.13s-78.76.34-81.42,0c-16.21-2.07-27.55-6.92-32.09-27.28C.62,55.35-.1,40.97,11.41,23.5S33.42,7.76,44.94,5.07Z"/><text class="cls-1" transform="translate(25.73 63.47)"><tspan x="0" y="0">Toilet Break</tspan></text></g></svg>